# Blender 5.1.1
# www.blender.org
mtllib money.mtl
o Cylinder
v 0.000000 -0.100000 -1.000000
v 0.000000 0.100000 -1.000000
v 0.195090 -0.100000 -0.980785
v 0.195090 0.100000 -0.980785
v 0.382683 -0.100000 -0.923880
v 0.382683 0.100000 -0.923880
v 0.555570 -0.100000 -0.831470
v 0.555570 0.100000 -0.831470
v 0.707107 -0.100000 -0.707107
v 0.707107 0.100000 -0.707107
v 0.831470 -0.100000 -0.555570
v 0.831470 0.100000 -0.555570
v 0.923880 -0.100000 -0.382683
v 0.923880 0.100000 -0.382683
v 0.980785 -0.100000 -0.195090
v 0.980785 0.100000 -0.195090
v 1.000000 -0.100000 0.000000
v 1.000000 0.100000 0.000000
v 0.980785 -0.100000 0.195090
v 0.980785 0.100000 0.195090
v 0.923880 -0.100000 0.382683
v 0.923880 0.100000 0.382683
v 0.831470 -0.100000 0.555570
v 0.831470 0.100000 0.555570
v 0.707107 -0.100000 0.707107
v 0.707107 0.100000 0.707107
v 0.555570 -0.100000 0.831470
v 0.555570 0.100000 0.831470
v 0.382683 -0.100000 0.923880
v 0.382683 0.100000 0.923880
v 0.195090 -0.100000 0.980785
v 0.195090 0.100000 0.980785
v 0.000000 -0.100000 1.000000
v 0.000000 0.100000 1.000000
v -0.195090 -0.100000 0.980785
v -0.195090 0.100000 0.980785
v -0.382683 -0.100000 0.923880
v -0.382683 0.100000 0.923880
v -0.555570 -0.100000 0.831470
v -0.555570 0.100000 0.831470
v -0.707107 -0.100000 0.707107
v -0.707107 0.100000 0.707107
v -0.831470 -0.100000 0.555570
v -0.831470 0.100000 0.555570
v -0.923880 -0.100000 0.382683
v -0.923880 0.100000 0.382683
v -0.980785 -0.100000 0.195090
v -0.980785 0.100000 0.195090
v -1.000000 -0.100000 0.000000
v -1.000000 0.100000 0.000000
v -0.980785 -0.100000 -0.195090
v -0.980785 0.100000 -0.195090
v -0.923880 -0.100000 -0.382683
v -0.923880 0.100000 -0.382683
v -0.831470 -0.100000 -0.555570
v -0.831470 0.100000 -0.555570
v -0.707107 -0.100000 -0.707107
v -0.707107 0.100000 -0.707107
v -0.555570 -0.100000 -0.831470
v -0.555570 0.100000 -0.831470
v -0.382683 -0.100000 -0.923880
v -0.382683 0.100000 -0.923880
v -0.195090 -0.100000 -0.980785
v -0.195090 0.100000 -0.980785
v 0.000000 -0.100000 -1.111101
v 0.216765 -0.100000 -1.089751
v 0.216765 0.100000 -1.089751
v 0.000000 0.100000 -1.111101
v 0.425200 -0.100000 -1.026523
v 0.425200 0.100000 -1.026523
v 0.617294 -0.100000 -0.923846
v 0.617294 0.100000 -0.923846
v 0.785667 -0.100000 -0.785667
v 0.785667 0.100000 -0.785667
v 0.923846 -0.100000 -0.617294
v 0.923846 0.100000 -0.617294
v 1.026523 -0.100000 -0.425200
v 1.026523 0.100000 -0.425200
v 1.089751 -0.100000 -0.216765
v 1.089751 0.100000 -0.216765
v 1.111101 -0.100000 0.000000
v 1.111101 0.100000 0.000000
v 1.089751 -0.100000 0.216765
v 1.089751 0.100000 0.216765
v 1.026523 -0.100000 0.425200
v 1.026523 0.100000 0.425200
v 0.923846 -0.100000 0.617294
v 0.923846 0.100000 0.617294
v 0.785667 -0.100000 0.785667
v 0.785667 0.100000 0.785667
v 0.617294 -0.100000 0.923846
v 0.617294 0.100000 0.923846
v 0.425200 -0.100000 1.026523
v 0.425200 0.100000 1.026523
v 0.216765 -0.100000 1.089751
v 0.216765 0.100000 1.089751
v 0.000000 -0.100000 1.111101
v 0.000000 0.100000 1.111101
v -0.216765 -0.100000 1.089751
v -0.216765 0.100000 1.089751
v -0.425200 -0.100000 1.026523
v -0.425200 0.100000 1.026523
v -0.617294 -0.100000 0.923846
v -0.617294 0.100000 0.923846
v -0.785667 -0.100000 0.785667
v -0.785667 0.100000 0.785667
v -0.923846 -0.100000 0.617294
v -0.923846 0.100000 0.617294
v -1.026523 -0.100000 0.425200
v -1.026523 0.100000 0.425200
v -1.089751 -0.100000 0.216765
v -1.089751 0.100000 0.216765
v -1.111101 -0.100000 0.000000
v -1.111101 0.100000 0.000000
v -1.089751 -0.100000 -0.216765
v -1.089751 0.100000 -0.216765
v -1.026523 -0.100000 -0.425200
v -1.026523 0.100000 -0.425200
v -0.923846 -0.100000 -0.617294
v -0.923846 0.100000 -0.617294
v -0.785667 -0.100000 -0.785667
v -0.785667 0.100000 -0.785667
v -0.617294 -0.100000 -0.923846
v -0.617294 0.100000 -0.923846
v -0.425200 -0.100000 -1.026523
v -0.425200 0.100000 -1.026523
v -0.216765 -0.100000 -1.089751
v -0.216765 0.100000 -1.089751
v 0.000000 -0.149519 -1.000000
v 0.195090 -0.149519 -0.980785
v 0.195090 0.149519 -0.980785
v 0.000000 0.149519 -1.000000
v 1.026523 -0.149519 0.425200
v 0.923880 -0.149519 0.382683
v -0.831470 0.149519 -0.555570
v -0.923846 0.149519 -0.617294
v 0.382683 -0.149519 -0.923880
v 0.382683 0.149519 -0.923880
v 0.000000 0.149519 -1.111101
v 0.555570 -0.149519 -0.831470
v 0.555570 0.149519 -0.831470
v 0.216765 0.149519 -1.089751
v 0.707107 -0.149519 -0.707107
v 0.707107 0.149519 -0.707107
v -0.382683 0.149519 0.923880
v -0.425200 0.149519 1.026523
v 0.831470 -0.149519 -0.555570
v 0.831470 0.149519 -0.555570
v -0.923846 -0.149519 -0.617294
v -0.831470 -0.149519 -0.555570
v 0.923880 -0.149519 -0.382683
v 0.923880 0.149519 -0.382683
v 0.216765 -0.149519 -1.089751
v 0.980785 -0.149519 -0.195090
v 0.980785 0.149519 -0.195090
v 0.000000 -0.149519 -1.111101
v 1.000000 -0.149519 0.000000
v 1.000000 0.149519 0.000000
v 0.980785 0.149519 0.195090
v 1.089751 0.149519 0.216765
v 0.980785 -0.149519 0.195090
v -0.425200 -0.149519 1.026523
v -0.382683 -0.149519 0.923880
v 0.923880 0.149519 0.382683
v 1.089751 -0.149519 0.216765
v 0.831470 -0.149519 0.555570
v 0.831470 0.149519 0.555570
v -0.923880 0.149519 -0.382683
v -1.026523 0.149519 -0.425200
v 0.707107 -0.149519 0.707107
v 0.707107 0.149519 0.707107
v -0.195090 0.149519 0.980785
v -0.216765 0.149519 1.089751
v 0.555570 -0.149519 0.831470
v 0.555570 0.149519 0.831470
v -1.026523 -0.149519 -0.425200
v -0.923880 -0.149519 -0.382683
v 0.382683 -0.149519 0.923880
v 0.382683 0.149519 0.923880
v 1.111101 0.149519 0.000000
v 0.195090 -0.149519 0.980785
v 0.195090 0.149519 0.980785
v -0.216765 -0.149519 1.089751
v -0.195090 -0.149519 0.980785
v 0.000000 -0.149519 1.000000
v 0.000000 0.149519 1.000000
v 1.111101 -0.149519 0.000000
v -0.980785 0.149519 -0.195090
v -1.089751 0.149519 -0.216765
v 0.000000 0.149519 1.111101
v -0.555570 -0.149519 0.831470
v -0.555570 0.149519 0.831470
v -1.089751 -0.149519 -0.216765
v -0.980785 -0.149519 -0.195090
v -0.707107 -0.149519 0.707107
v -0.707107 0.149519 0.707107
v 1.026523 0.149519 -0.425200
v -0.831470 -0.149519 0.555570
v -0.831470 0.149519 0.555570
v 1.089751 0.149519 -0.216765
v -0.923880 -0.149519 0.382683
v -0.923880 0.149519 0.382683
v 0.000000 -0.149519 1.111101
v -0.980785 -0.149519 0.195090
v -0.980785 0.149519 0.195090
v 0.216765 -0.149519 1.089751
v -1.000000 -0.149519 0.000000
v -1.000000 0.149519 0.000000
v 1.089751 -0.149519 -0.216765
v 1.026523 -0.149519 -0.425200
v -1.089751 0.149519 0.216765
v -1.111101 0.149519 0.000000
v -0.707107 -0.149519 -0.707107
v -0.707107 0.149519 -0.707107
v 0.425200 0.149519 1.026523
v -0.555570 -0.149519 -0.831470
v -0.555570 0.149519 -0.831470
v 0.216765 0.149519 1.089751
v -0.382683 -0.149519 -0.923880
v -0.382683 0.149519 -0.923880
v -1.111101 -0.149519 0.000000
v -0.195090 -0.149519 -0.980785
v -0.195090 0.149519 -0.980785
v -1.089751 -0.149519 0.216765
v 0.425200 -0.149519 -1.026523
v 0.425200 0.149519 -1.026523
v 0.617294 -0.149519 -0.923846
v 0.617294 0.149519 -0.923846
v 0.785667 -0.149519 -0.785667
v 0.785667 0.149519 -0.785667
v 0.923846 -0.149519 -0.617294
v 0.923846 0.149519 -0.617294
v 1.026523 0.149519 0.425200
v 0.923846 -0.149519 0.617294
v 0.923846 0.149519 0.617294
v 0.785667 -0.149519 0.785667
v 0.785667 0.149519 0.785667
v 0.617294 -0.149519 0.923846
v 0.617294 0.149519 0.923846
v 0.425200 -0.149519 1.026523
v -0.617294 -0.149519 0.923846
v -0.617294 0.149519 0.923846
v -0.785667 -0.149519 0.785667
v -0.785667 0.149519 0.785667
v -0.923846 -0.149519 0.617294
v -0.923846 0.149519 0.617294
v -1.026523 -0.149519 0.425200
v -1.026523 0.149519 0.425200
v -0.785667 -0.149519 -0.785667
v -0.785667 0.149519 -0.785667
v -0.617294 -0.149519 -0.923846
v -0.617294 0.149519 -0.923846
v -0.425200 -0.149519 -1.026523
v -0.425200 0.149519 -1.026523
v -0.216765 -0.149519 -1.089751
v -0.216765 0.149519 -1.089751
v -0.295269 0.100000 -0.343468
v -0.295215 0.100000 0.326712
v -0.198897 0.100000 0.326896
v -0.198883 0.100000 -0.194499
v 0.009389 0.100000 0.064519
v 0.025142 0.100000 0.064219
v 0.231373 0.100000 -0.195556
v 0.233384 0.100000 0.326729
v 0.329711 0.100000 0.326849
v 0.329681 0.100000 -0.343706
v 0.240225 0.100000 -0.343725
v 0.017238 0.100000 -0.068116
v -0.204774 0.100000 -0.343178
v -0.295269 0.153263 -0.343468
v -0.295215 0.153263 0.326712
v -0.198897 0.153263 0.326896
v -0.198883 0.153263 -0.194499
v 0.009389 0.153263 0.064519
v 0.025142 0.153263 0.064219
v 0.231373 0.153263 -0.195556
v 0.233384 0.153263 0.326729
v 0.329711 0.153263 0.326849
v 0.329681 0.153263 -0.343706
v 0.240225 0.153263 -0.343725
v 0.017238 0.153263 -0.068116
v -0.204774 0.153263 -0.343178
vn -0.4714 -0.0000 -0.8819
vn 0.2903 -0.0000 0.9569
vn 0.0980 -0.0000 0.9952
vn -0.6344 -0.0000 -0.7730
vn 0.4714 -0.0000 0.8819
vn -0.0980 -0.0000 -0.9952
vn -0.7730 -0.0000 -0.6344
vn 0.6344 -0.0000 0.7730
vn -0.2903 -0.0000 -0.9569
vn -0.8819 -0.0000 -0.4714
vn 0.7730 -0.0000 0.6344
vn -0.0000 1.0000 -0.0000
vn -0.9569 -0.0000 -0.2903
vn 0.8819 -0.0000 0.4714
vn -0.0000 -1.0000 -0.0000
vn 0.0980 -0.0000 -0.9952
vn 0.2903 -0.0000 -0.9569
vn 0.4714 -0.0000 -0.8819
vn 0.6344 -0.0000 -0.7730
vn 0.7730 -0.0000 -0.6344
vn 0.8819 -0.0000 -0.4714
vn 0.9569 -0.0000 -0.2903
vn 0.9952 -0.0000 -0.0980
vn 0.9952 -0.0000 0.0980
vn 0.9569 -0.0000 0.2903
vn -0.0980 -0.0000 0.9952
vn -0.2903 -0.0000 0.9569
vn -0.4714 -0.0000 0.8819
vn -0.6344 -0.0000 0.7730
vn -0.7730 -0.0000 0.6344
vn -0.8819 -0.0000 0.4714
vn -0.9569 -0.0000 0.2903
vn -0.9952 -0.0000 0.0980
vn -0.9952 -0.0000 -0.0980
vn 1.0000 -0.0000 -0.0000
vn -0.7774 -0.0000 -0.6290
vn -0.7793 -0.0000 0.6266
vn 0.7782 -0.0000 -0.6281
vn 0.0191 -0.0000 0.9998
vn 0.0032 -0.0000 -1.0000
vn 0.7832 -0.0000 0.6218
vn -1.0000 -0.0000 0.0039
vn -0.0012 -0.0000 1.0000
vn -1.0000 -0.0000 0.0001
vn -0.0019 -0.0000 1.0000
vn 0.0002 -0.0000 -1.0000
vt 0.341844 0.028269
vt 0.383337 0.050447
vt 0.203178 0.485388
vt 0.158156 0.471731
vt 0.531250 1.000000
vt 0.500000 1.000000
vt 0.883337 0.050447
vt 0.841844 0.028269
vt 0.658156 0.471731
vt 0.703178 0.485388
vt 0.500000 0.500000
vt 0.531250 0.500000
vt 0.419706 0.080294
vt 0.116663 0.449553
vt 0.562500 1.000000
vt 0.919706 0.080294
vt 0.031250 1.000000
vt 0.000000 1.000000
vt 0.616663 0.449553
vt 0.562500 0.500000
vt 0.000000 0.500000
vt 0.031250 0.500000
vt 0.449553 0.116663
vt 0.080294 0.419706
vt 0.593750 1.000000
vt 0.949553 0.116663
vt 0.062500 1.000000
vt 0.580294 0.419706
vt 0.593750 0.500000
vt 0.062500 0.500000
vt 0.471731 0.158156
vt 0.050447 0.383337
vt 0.625000 1.000000
vt 0.971731 0.158156
vt 0.093750 1.000000
vt 0.550447 0.383337
vt 0.625000 0.500000
vt 0.093750 0.500000
vt 0.158156 0.028269
vt 0.341844 0.471731
vt 0.485388 0.203178
vt 0.028269 0.341844
vt 0.796822 0.014612
vt 0.514612 0.203178
vt 1.000000 1.000000
vt 0.968750 0.500000
vt 1.000000 0.500000
vt 0.968750 1.000000
vt 0.937500 0.500000
vt 0.937500 1.000000
vt 0.906250 0.500000
vt 0.906250 1.000000
vt 0.875000 0.500000
vt 0.875000 1.000000
vt 0.843750 0.500000
vt 0.843750 1.000000
vt 0.812500 0.500000
vt 0.812500 1.000000
vt 0.781250 0.500000
vt 0.781250 1.000000
vt 0.750000 0.500000
vt 0.750000 1.000000
vt 0.718750 0.500000
vt 0.718750 1.000000
vt 0.687500 0.500000
vt 0.687500 1.000000
vt 0.656250 0.500000
vt 0.656250 1.000000
vt 0.468750 0.500000
vt 0.468750 1.000000
vt 0.437500 0.500000
vt 0.437500 1.000000
vt 0.406250 0.500000
vt 0.406250 1.000000
vt 0.375000 0.500000
vt 0.375000 1.000000
vt 0.343750 0.500000
vt 0.343750 1.000000
vt 0.312500 0.500000
vt 0.312500 1.000000
vt 0.281250 0.500000
vt 0.281250 1.000000
vt 0.250000 0.500000
vt 0.250000 1.000000
vt 0.218750 0.500000
vt 0.218750 1.000000
vt 0.187500 0.500000
vt 0.187500 1.000000
vt 0.156250 0.500000
vt 0.156250 1.000000
vt 0.125000 0.500000
vt 0.125000 1.000000
vt 0.985388 0.203178
vt 0.528269 0.341844
vt 0.490000 0.250000
vt 0.014612 0.296822
vt 0.990000 0.250000
vt 0.514612 0.296822
vt 0.485388 0.296822
vt 0.010000 0.250000
vt 0.985388 0.296822
vt 0.510000 0.250000
vt 0.471731 0.341844
vt 0.014612 0.203178
vt 0.971731 0.341844
vt 0.449553 0.383337
vt 0.028269 0.158156
vt 0.296822 0.485388
vt 0.841844 0.471731
vt 0.796822 0.485388
vt 0.116663 0.050447
vt 0.616663 0.050447
vt 0.658156 0.028269
vt 0.250000 0.490000
vt 0.203178 0.014612
vt 0.750000 0.490000
vt 0.703178 0.014612
vt 0.250000 0.010000
vt 0.750000 0.010000
vt 0.296822 0.014612
vt 0.580294 0.080294
vt 0.080294 0.080294
vt 0.883337 0.449553
vt 0.383337 0.449553
vt 0.550447 0.116663
vt 0.050447 0.116663
vt 0.919706 0.419706
vt 0.419706 0.419706
vt 0.528269 0.158156
vt 0.949553 0.383337
vt 0.256034 0.234587
vt 0.305530 0.296933
vt 0.254137 0.266348
vt 0.202268 0.296680
vt 0.202265 0.171545
vt 0.307654 0.332494
vt 0.252253 0.234515
vt 0.200854 0.332363
vt 0.179135 0.332432
vt 0.306012 0.171585
vt 0.329131 0.171556
vt 0.179148 0.171589
vt 0.329124 0.332490
s 0
usemtl Material.001
f 30/1/1 175/2/1 28/2/1
f 64/3/2 220/4/2 62/4/2
f 96/5/3 190/6/3 98/6/3
f 27/7/1 178/8/1 29/8/1
f 61/9/2 222/10/2 63/10/2
f 97/11/3 206/12/3 95/12/3
f 28/2/4 171/13/4 26/13/4
f 62/4/5 217/14/5 60/14/5
f 94/15/2 218/5/2 96/5/2
f 25/16/4 174/7/4 27/7/4
f 128/17/6 139/18/6 68/18/6
f 59/19/5 219/9/5 61/9/5
f 95/12/2 240/20/2 93/20/2
f 65/21/6 255/22/6 127/22/6
f 26/13/7 167/23/7 24/23/7
f 60/14/8 214/24/8 58/24/8
f 92/25/5 215/15/5 94/15/5
f 23/26/7 170/16/7 25/16/7
f 126/27/9 256/17/9 128/17/9
f 57/28/8 216/19/8 59/19/8
f 93/20/5 238/29/5 91/29/5
f 127/22/9 253/30/9 125/30/9
f 24/23/10 164/31/10 22/31/10
f 58/24/11 135/32/11 56/32/11
f 90/33/8 239/25/8 92/25/8
f 21/34/10 166/26/10 23/26/10
f 124/35/1 254/27/1 126/27/1
f 55/36/11 213/28/11 57/28/11
f 91/29/8 236/37/8 89/37/8
f 125/30/1 251/38/1 123/38/1
f 38/39/12 22/31/12 6/40/12
f 22/31/13 159/41/13 20/41/13
f 56/32/14 168/42/14 54/42/14
f 31/43/15 47/44/15 63/10/15
f 68/45/16 66/46/16 65/47/16
f 67/48/17 69/49/17 66/46/17
f 70/50/18 71/51/18 69/49/18
f 72/52/19 73/53/19 71/51/19
f 74/54/20 75/55/20 73/53/20
f 76/56/21 77/57/21 75/55/21
f 78/58/22 79/59/22 77/57/22
f 80/60/23 81/61/23 79/59/23
f 82/62/24 83/63/24 81/61/24
f 84/64/25 85/65/25 83/63/25
f 86/66/14 87/67/14 85/65/14
f 88/68/11 89/37/11 87/67/11
f 90/33/8 91/29/8 89/37/8
f 92/25/5 93/20/5 91/29/5
f 94/15/2 95/12/2 93/20/2
f 96/5/3 97/11/3 95/12/3
f 98/6/26 99/69/26 97/11/26
f 100/70/27 101/71/27 99/69/27
f 102/72/28 103/73/28 101/71/28
f 104/74/29 105/75/29 103/73/29
f 106/76/30 107/77/30 105/75/30
f 108/78/31 109/79/31 107/77/31
f 110/80/32 111/81/32 109/79/32
f 112/82/33 113/83/33 111/81/33
f 114/84/34 115/85/34 113/83/34
f 116/86/13 117/87/13 115/85/13
f 118/88/10 119/89/10 117/87/10
f 120/90/7 121/91/7 119/89/7
f 122/92/4 123/38/4 121/91/4
f 124/35/1 125/30/1 123/38/1
f 126/27/9 127/22/9 125/30/9
f 128/17/6 65/21/6 127/22/6
f 88/68/11 237/33/11 90/33/11
f 19/93/13 134/34/13 21/34/13
f 122/92/4 252/35/4 124/35/4
f 53/94/14 150/36/14 55/36/14
f 89/37/11 234/67/11 87/67/11
f 123/38/4 249/91/4 121/91/4
f 20/41/34 158/95/34 18/95/34
f 54/42/25 188/96/25 52/96/25
f 86/66/14 235/68/14 88/68/14
f 19/93/34 157/97/34 161/93/34
f 120/90/7 250/92/7 122/92/7
f 51/98/25 177/94/25 53/94/25
f 87/67/14 133/65/14 85/65/14
f 121/91/7 149/89/7 119/89/7
f 16/99/33 158/95/33 155/99/33
f 52/96/24 208/100/24 50/100/24
f 84/64/25 233/66/25 86/66/25
f 15/101/33 157/97/33 17/97/33
f 118/88/10 136/90/10 120/90/10
f 51/98/24 207/102/24 194/98/24
f 85/65/25 165/63/25 83/63/25
f 119/89/10 176/87/10 117/87/10
f 16/99/32 152/103/32 14/103/32
f 48/104/23 208/100/23 205/104/23
f 82/62/24 160/64/24 84/64/24
f 13/105/32 154/101/32 15/101/32
f 116/86/13 169/88/13 118/88/13
f 47/44/23 207/102/23 49/102/23
f 83/63/24 187/61/24 81/61/24
f 117/87/13 193/85/13 115/85/13
f 14/103/31 148/106/31 12/106/31
f 48/104/22 202/107/22 46/107/22
f 138/40/12 142/108/12 131/108/12
f 166/26/15 133/34/15 234/26/15
f 214/24/12 136/32/12 135/32/12
f 137/109/15 153/110/15 225/109/15
f 192/111/12 146/39/12 145/39/12
f 150/36/15 249/28/15 213/28/15
f 164/31/12 160/41/12 159/41/12
f 191/112/15 162/113/15 241/112/15
f 134/34/15 165/93/15 133/34/15
f 135/32/12 169/42/12 168/42/12
f 132/114/12 142/108/12 139/114/12
f 145/39/12 173/115/12 172/115/12
f 150/36/15 176/94/15 149/36/15
f 129/116/15 153/110/15 130/110/15
f 158/95/12 160/41/12 180/95/12
f 163/113/15 183/117/15 162/113/15
f 157/97/15 165/93/15 161/93/15
f 168/42/12 189/96/12 188/96/12
f 186/118/12 173/115/12 190/118/12
f 177/94/15 193/98/15 176/94/15
f 158/95/12 200/99/12 155/99/12
f 185/119/15 183/117/15 184/117/15
f 157/97/15 209/101/15 187/97/15
f 208/100/12 189/96/12 212/100/12
f 186/118/12 218/120/12 182/120/12
f 207/102/15 193/98/15 194/98/15
f 152/103/12 200/99/12 197/103/12
f 185/119/15 206/43/15 203/119/15
f 151/105/15 209/101/15 154/101/15
f 208/100/12 211/104/12 205/104/12
f 179/1/12 218/120/12 215/1/12
f 207/102/15 224/44/15 221/102/15
f 191/112/15 243/121/15 195/121/15
f 167/23/12 233/31/12 164/31/12
f 213/28/15 251/19/15 216/19/15
f 196/122/12 242/111/12 192/111/12
f 140/123/15 225/109/15 227/123/15
f 217/14/12 250/24/12 214/24/12
f 166/26/15 236/16/15 170/16/15
f 141/124/12 226/40/12 138/40/12
f 195/121/15 245/125/15 198/125/15
f 171/13/12 235/23/12 167/23/12
f 216/19/15 253/9/15 219/9/15
f 199/126/12 244/122/12 196/122/12
f 140/123/15 229/127/15 143/127/15
f 217/14/12 254/4/12 252/14/12
f 170/16/15 238/7/15 174/7/15
f 144/128/12 228/124/12 141/124/12
f 198/125/15 247/129/15 201/129/15
f 175/2/12 237/13/12 171/13/12
f 219/9/15 255/10/15 222/10/15
f 199/126/12 248/107/12 246/126/12
f 143/127/15 231/130/15 147/130/15
f 220/4/12 256/3/12 254/4/12
f 174/7/15 240/8/15 178/8/15
f 148/106/12 230/128/12 144/128/12
f 201/129/15 224/44/15 204/44/15
f 175/2/12 215/1/12 239/2/12
f 129/116/15 255/10/15 156/116/15
f 202/107/12 211/104/12 248/107/12
f 147/130/15 210/105/15 151/105/15
f 132/114/12 256/3/12 223/3/12
f 178/8/15 206/43/15 181/43/15
f 148/106/12 197/103/12 232/106/12
f 99/69/26 203/11/26 97/11/26
f 63/10/3 129/116/3 1/116/3
f 29/8/9 181/43/9 31/43/9
f 98/6/26 173/70/26 100/70/26
f 64/3/3 132/114/3 223/3/3
f 32/120/9 179/1/9 30/1/9
f 66/46/16 156/47/16 65/47/16
f 101/71/27 183/69/27 99/69/27
f 68/45/16 142/48/16 67/48/16
f 31/43/6 185/119/6 33/119/6
f 100/70/27 146/72/27 102/72/27
f 32/120/6 186/118/6 182/120/6
f 103/73/28 162/71/28 101/71/28
f 69/49/17 153/46/17 66/46/17
f 35/117/16 185/119/16 184/117/16
f 102/72/28 242/74/28 104/74/28
f 67/48/17 226/50/17 70/50/17
f 36/115/16 186/118/16 34/118/16
f 105/75/29 241/73/29 103/73/29
f 3/110/26 129/116/26 130/110/26
f 71/51/18 225/49/18 69/49/18
f 35/117/17 163/113/17 37/113/17
f 104/74/29 244/76/29 106/76/29
f 4/108/26 132/114/26 2/114/26
f 70/50/18 228/52/18 72/52/18
f 38/39/17 172/115/17 36/115/17
f 107/77/30 243/75/30 105/75/30
f 73/53/19 227/51/19 71/51/19
f 37/113/18 191/112/18 39/112/18
f 106/76/30 246/78/30 108/78/30
f 3/110/27 137/109/27 5/109/27
f 72/52/19 230/54/19 74/54/19
f 40/111/18 145/39/18 38/39/18
f 6/40/27 131/108/27 4/108/27
f 109/79/31 245/77/31 107/77/31
f 75/55/20 229/53/20 73/53/20
f 39/112/19 195/121/19 41/121/19
f 108/78/31 248/80/31 110/80/31
f 5/109/28 140/123/28 7/123/28
f 74/54/20 232/56/20 76/56/20
f 42/122/19 192/111/19 40/111/19
f 8/124/28 138/40/28 6/40/28
f 111/81/32 247/79/32 109/79/32
f 77/57/21 231/55/21 75/55/21
f 41/121/20 198/125/20 43/125/20
f 110/80/32 211/82/32 112/82/32
f 7/123/29 143/127/29 9/127/29
f 76/56/21 197/58/21 78/58/21
f 44/126/20 196/122/20 42/122/20
f 10/128/29 141/124/29 8/124/29
f 113/83/33 224/81/33 111/81/33
f 79/59/22 210/57/22 77/57/22
f 43/125/21 201/129/21 45/129/21
f 112/82/33 212/84/33 114/84/33
f 9/127/30 147/130/30 11/130/30
f 78/58/22 200/60/22 80/60/22
f 46/107/21 199/126/21 44/126/21
f 12/106/30 144/128/30 10/128/30
f 115/85/34 221/83/34 113/83/34
f 81/61/23 209/59/23 79/59/23
f 45/129/22 204/44/22 47/44/22
f 114/84/34 189/86/34 116/86/34
f 11/130/31 151/105/31 13/105/31
f 80/60/23 180/62/23 82/62/23
f 275/131/12 276/132/12 281/133/12
f 260/134/35 272/135/35 259/135/35
f 268/133/36 280/136/36 267/136/36
f 261/137/37 273/134/37 260/134/37
f 269/138/38 281/133/38 268/133/38
f 262/131/39 274/137/39 261/137/39
f 257/139/40 282/138/40 269/138/40
f 263/132/41 275/131/41 262/131/41
f 264/140/42 276/132/42 263/132/42
f 265/141/43 277/140/43 264/140/43
f 258/142/44 270/139/44 257/139/44
f 266/143/35 278/141/35 265/141/35
f 259/135/45 271/142/45 258/142/45
f 267/136/46 279/143/46 266/143/46
f 263/132/15 262/131/15 268/133/15
f 30/1/1 179/1/1 175/2/1
f 64/3/2 223/3/2 220/4/2
f 96/5/3 218/5/3 190/6/3
f 27/7/1 174/7/1 178/8/1
f 61/9/2 219/9/2 222/10/2
f 97/11/3 203/11/3 206/12/3
f 28/2/4 175/2/4 171/13/4
f 62/4/5 220/4/5 217/14/5
f 94/15/2 215/15/2 218/5/2
f 25/16/4 170/16/4 174/7/4
f 128/17/6 256/17/6 139/18/6
f 59/19/5 216/19/5 219/9/5
f 95/12/2 206/12/2 240/20/2
f 65/21/6 156/21/6 255/22/6
f 26/13/7 171/13/7 167/23/7
f 60/14/8 217/14/8 214/24/8
f 92/25/5 239/25/5 215/15/5
f 23/26/7 166/26/7 170/16/7
f 126/27/9 254/27/9 256/17/9
f 57/28/8 213/28/8 216/19/8
f 93/20/5 240/20/5 238/29/5
f 127/22/9 255/22/9 253/30/9
f 24/23/10 167/23/10 164/31/10
f 58/24/11 214/24/11 135/32/11
f 90/33/8 237/33/8 239/25/8
f 21/34/10 134/34/10 166/26/10
f 124/35/1 252/35/1 254/27/1
f 55/36/11 150/36/11 213/28/11
f 91/29/8 238/29/8 236/37/8
f 125/30/1 253/30/1 251/38/1
f 6/40/12 4/108/12 2/114/12
f 2/114/12 64/3/12 6/40/12
f 64/3/12 62/4/12 6/40/12
f 62/4/12 60/14/12 58/24/12
f 58/24/12 56/32/12 54/42/12
f 54/42/12 52/96/12 50/100/12
f 50/100/12 48/104/12 54/42/12
f 48/104/12 46/107/12 54/42/12
f 46/107/12 44/126/12 42/122/12
f 42/122/12 40/111/12 38/39/12
f 38/39/12 36/115/12 30/1/12
f 36/115/12 34/118/12 30/1/12
f 34/118/12 32/120/12 30/1/12
f 30/1/12 28/2/12 26/13/12
f 26/13/12 24/23/12 22/31/12
f 22/31/12 20/41/12 14/103/12
f 20/41/12 18/95/12 14/103/12
f 18/95/12 16/99/12 14/103/12
f 14/103/12 12/106/12 10/128/12
f 10/128/12 8/124/12 6/40/12
f 62/4/12 58/24/12 6/40/12
f 58/24/12 54/42/12 6/40/12
f 46/107/12 42/122/12 54/42/12
f 42/122/12 38/39/12 54/42/12
f 30/1/12 26/13/12 38/39/12
f 26/13/12 22/31/12 38/39/12
f 14/103/12 10/128/12 22/31/12
f 10/128/12 6/40/12 22/31/12
f 6/40/12 54/42/12 38/39/12
f 22/31/13 164/31/13 159/41/13
f 56/32/14 135/32/14 168/42/14
f 63/10/15 1/116/15 3/110/15
f 3/110/15 5/109/15 7/123/15
f 7/123/15 9/127/15 11/130/15
f 11/130/15 13/105/15 15/101/15
f 15/101/15 17/97/15 19/93/15
f 19/93/15 21/34/15 23/26/15
f 23/26/15 25/16/15 27/7/15
f 27/7/15 29/8/15 31/43/15
f 31/43/15 33/119/15 35/117/15
f 35/117/15 37/113/15 39/112/15
f 39/112/15 41/121/15 43/125/15
f 43/125/15 45/129/15 47/44/15
f 47/44/15 49/102/15 51/98/15
f 51/98/15 53/94/15 55/36/15
f 55/36/15 57/28/15 59/19/15
f 59/19/15 61/9/15 63/10/15
f 63/10/15 3/110/15 15/101/15
f 3/110/15 7/123/15 15/101/15
f 7/123/15 11/130/15 15/101/15
f 15/101/15 19/93/15 31/43/15
f 19/93/15 23/26/15 31/43/15
f 23/26/15 27/7/15 31/43/15
f 31/43/15 35/117/15 47/44/15
f 35/117/15 39/112/15 47/44/15
f 39/112/15 43/125/15 47/44/15
f 47/44/15 51/98/15 63/10/15
f 51/98/15 55/36/15 63/10/15
f 55/36/15 59/19/15 63/10/15
f 63/10/15 15/101/15 31/43/15
f 68/45/16 67/48/16 66/46/16
f 67/48/17 70/50/17 69/49/17
f 70/50/18 72/52/18 71/51/18
f 72/52/19 74/54/19 73/53/19
f 74/54/20 76/56/20 75/55/20
f 76/56/21 78/58/21 77/57/21
f 78/58/22 80/60/22 79/59/22
f 80/60/23 82/62/23 81/61/23
f 82/62/24 84/64/24 83/63/24
f 84/64/25 86/66/25 85/65/25
f 86/66/14 88/68/14 87/67/14
f 88/68/11 90/33/11 89/37/11
f 90/33/8 92/25/8 91/29/8
f 92/25/5 94/15/5 93/20/5
f 94/15/2 96/5/2 95/12/2
f 96/5/3 98/6/3 97/11/3
f 98/6/26 100/70/26 99/69/26
f 100/70/27 102/72/27 101/71/27
f 102/72/28 104/74/28 103/73/28
f 104/74/29 106/76/29 105/75/29
f 106/76/30 108/78/30 107/77/30
f 108/78/31 110/80/31 109/79/31
f 110/80/32 112/82/32 111/81/32
f 112/82/33 114/84/33 113/83/33
f 114/84/34 116/86/34 115/85/34
f 116/86/13 118/88/13 117/87/13
f 118/88/10 120/90/10 119/89/10
f 120/90/7 122/92/7 121/91/7
f 122/92/4 124/35/4 123/38/4
f 124/35/1 126/27/1 125/30/1
f 126/27/9 128/17/9 127/22/9
f 128/17/6 68/18/6 65/21/6
f 88/68/11 235/68/11 237/33/11
f 19/93/13 161/93/13 134/34/13
f 122/92/4 250/92/4 252/35/4
f 53/94/14 177/94/14 150/36/14
f 89/37/11 236/37/11 234/67/11
f 123/38/4 251/38/4 249/91/4
f 20/41/34 159/41/34 158/95/34
f 54/42/25 168/42/25 188/96/25
f 86/66/14 233/66/14 235/68/14
f 19/93/34 17/97/34 157/97/34
f 120/90/7 136/90/7 250/92/7
f 51/98/25 194/98/25 177/94/25
f 87/67/14 234/67/14 133/65/14
f 121/91/7 249/91/7 149/89/7
f 16/99/33 18/95/33 158/95/33
f 52/96/24 188/96/24 208/100/24
f 84/64/25 160/64/25 233/66/25
f 15/101/33 154/101/33 157/97/33
f 118/88/10 169/88/10 136/90/10
f 51/98/24 49/102/24 207/102/24
f 85/65/25 133/65/25 165/63/25
f 119/89/10 149/89/10 176/87/10
f 16/99/32 155/99/32 152/103/32
f 48/104/23 50/100/23 208/100/23
f 82/62/24 180/62/24 160/64/24
f 13/105/32 151/105/32 154/101/32
f 116/86/13 189/86/13 169/88/13
f 47/44/23 204/44/23 207/102/23
f 83/63/24 165/63/24 187/61/24
f 117/87/13 176/87/13 193/85/13
f 14/103/31 152/103/31 148/106/31
f 48/104/22 205/104/22 202/107/22
f 138/40/12 226/40/12 142/108/12
f 166/26/15 134/34/15 133/34/15
f 214/24/12 250/24/12 136/32/12
f 137/109/15 130/110/15 153/110/15
f 192/111/12 242/111/12 146/39/12
f 150/36/15 149/36/15 249/28/15
f 164/31/12 233/31/12 160/41/12
f 191/112/15 163/113/15 162/113/15
f 134/34/15 161/93/15 165/93/15
f 135/32/12 136/32/12 169/42/12
f 132/114/12 131/108/12 142/108/12
f 145/39/12 146/39/12 173/115/12
f 150/36/15 177/94/15 176/94/15
f 129/116/15 156/116/15 153/110/15
f 158/95/12 159/41/12 160/41/12
f 163/113/15 184/117/15 183/117/15
f 157/97/15 187/97/15 165/93/15
f 168/42/12 169/42/12 189/96/12
f 186/118/12 172/115/12 173/115/12
f 177/94/15 194/98/15 193/98/15
f 158/95/12 180/95/12 200/99/12
f 185/119/15 203/119/15 183/117/15
f 157/97/15 154/101/15 209/101/15
f 208/100/12 188/96/12 189/96/12
f 186/118/12 190/118/12 218/120/12
f 207/102/15 221/102/15 193/98/15
f 152/103/12 155/99/12 200/99/12
f 185/119/15 181/43/15 206/43/15
f 151/105/15 210/105/15 209/101/15
f 208/100/12 212/100/12 211/104/12
f 179/1/12 182/120/12 218/120/12
f 207/102/15 204/44/15 224/44/15
f 191/112/15 241/112/15 243/121/15
f 167/23/12 235/23/12 233/31/12
f 213/28/15 249/28/15 251/19/15
f 196/122/12 244/122/12 242/111/12
f 140/123/15 137/109/15 225/109/15
f 217/14/12 252/14/12 250/24/12
f 166/26/15 234/26/15 236/16/15
f 141/124/12 228/124/12 226/40/12
f 195/121/15 243/121/15 245/125/15
f 171/13/12 237/13/12 235/23/12
f 216/19/15 251/19/15 253/9/15
f 199/126/12 246/126/12 244/122/12
f 140/123/15 227/123/15 229/127/15
f 217/14/12 220/4/12 254/4/12
f 170/16/15 236/16/15 238/7/15
f 144/128/12 230/128/12 228/124/12
f 198/125/15 245/125/15 247/129/15
f 175/2/12 239/2/12 237/13/12
f 219/9/15 253/9/15 255/10/15
f 199/126/12 202/107/12 248/107/12
f 143/127/15 229/127/15 231/130/15
f 220/4/12 223/3/12 256/3/12
f 174/7/15 238/7/15 240/8/15
f 148/106/12 232/106/12 230/128/12
f 201/129/15 247/129/15 224/44/15
f 175/2/12 179/1/12 215/1/12
f 129/116/15 222/10/15 255/10/15
f 202/107/12 205/104/12 211/104/12
f 147/130/15 231/130/15 210/105/15
f 132/114/12 139/114/12 256/3/12
f 178/8/15 240/8/15 206/43/15
f 148/106/12 152/103/12 197/103/12
f 99/69/26 183/69/26 203/11/26
f 63/10/3 222/10/3 129/116/3
f 29/8/9 178/8/9 181/43/9
f 98/6/26 190/6/26 173/70/26
f 64/3/3 2/114/3 132/114/3
f 32/120/9 182/120/9 179/1/9
f 66/46/16 153/46/16 156/47/16
f 101/71/27 162/71/27 183/69/27
f 68/45/16 139/45/16 142/48/16
f 31/43/6 181/43/6 185/119/6
f 100/70/27 173/70/27 146/72/27
f 32/120/6 34/118/6 186/118/6
f 103/73/28 241/73/28 162/71/28
f 69/49/17 225/49/17 153/46/17
f 35/117/16 33/119/16 185/119/16
f 102/72/28 146/72/28 242/74/28
f 67/48/17 142/48/17 226/50/17
f 36/115/16 172/115/16 186/118/16
f 105/75/29 243/75/29 241/73/29
f 3/110/26 1/116/26 129/116/26
f 71/51/18 227/51/18 225/49/18
f 35/117/17 184/117/17 163/113/17
f 104/74/29 242/74/29 244/76/29
f 4/108/26 131/108/26 132/114/26
f 70/50/18 226/50/18 228/52/18
f 38/39/17 145/39/17 172/115/17
f 107/77/30 245/77/30 243/75/30
f 73/53/19 229/53/19 227/51/19
f 37/113/18 163/113/18 191/112/18
f 106/76/30 244/76/30 246/78/30
f 3/110/27 130/110/27 137/109/27
f 72/52/19 228/52/19 230/54/19
f 40/111/18 192/111/18 145/39/18
f 6/40/27 138/40/27 131/108/27
f 109/79/31 247/79/31 245/77/31
f 75/55/20 231/55/20 229/53/20
f 39/112/19 191/112/19 195/121/19
f 108/78/31 246/78/31 248/80/31
f 5/109/28 137/109/28 140/123/28
f 74/54/20 230/54/20 232/56/20
f 42/122/19 196/122/19 192/111/19
f 8/124/28 141/124/28 138/40/28
f 111/81/32 224/81/32 247/79/32
f 77/57/21 210/57/21 231/55/21
f 41/121/20 195/121/20 198/125/20
f 110/80/32 248/80/32 211/82/32
f 7/123/29 140/123/29 143/127/29
f 76/56/21 232/56/21 197/58/21
f 44/126/20 199/126/20 196/122/20
f 10/128/29 144/128/29 141/124/29
f 113/83/33 221/83/33 224/81/33
f 79/59/22 209/59/22 210/57/22
f 43/125/21 198/125/21 201/129/21
f 112/82/33 211/82/33 212/84/33
f 9/127/30 143/127/30 147/130/30
f 78/58/22 197/58/22 200/60/22
f 46/107/21 202/107/21 199/126/21
f 12/106/30 148/106/30 144/128/30
f 115/85/34 193/85/34 221/83/34
f 81/61/23 187/61/23 209/59/23
f 45/129/22 201/129/22 204/44/22
f 114/84/34 212/84/34 189/86/34
f 11/130/31 147/130/31 151/105/31
f 80/60/23 200/60/23 180/62/23
f 270/139/12 271/142/12 273/134/12
f 271/142/12 272/135/12 273/134/12
f 273/134/12 274/137/12 281/133/12
f 274/137/12 275/131/12 281/133/12
f 281/133/12 282/138/12 273/134/12
f 282/138/12 270/139/12 273/134/12
f 279/143/12 280/136/12 276/132/12
f 280/136/12 281/133/12 276/132/12
f 277/140/12 278/141/12 276/132/12
f 278/141/12 279/143/12 276/132/12
f 260/134/35 273/134/35 272/135/35
f 268/133/36 281/133/36 280/136/36
f 261/137/37 274/137/37 273/134/37
f 269/138/38 282/138/38 281/133/38
f 262/131/39 275/131/39 274/137/39
f 257/139/40 270/139/40 282/138/40
f 263/132/41 276/132/41 275/131/41
f 264/140/42 277/140/42 276/132/42
f 265/141/43 278/141/43 277/140/43
f 258/142/44 271/142/44 270/139/44
f 266/143/35 279/143/35 278/141/35
f 259/135/45 272/135/45 271/142/45
f 267/136/46 280/136/46 279/143/46
f 258/142/15 257/139/15 260/134/15
f 257/139/15 269/138/15 260/134/15
f 268/133/15 267/136/15 263/132/15
f 267/136/15 266/143/15 263/132/15
f 259/135/15 258/142/15 260/134/15
f 262/131/15 261/137/15 268/133/15
f 261/137/15 260/134/15 268/133/15
f 260/134/15 269/138/15 268/133/15
f 265/141/15 264/140/15 263/132/15
f 266/143/15 265/141/15 263/132/15
