# Blender 5.1.1
# www.blender.org
mtllib Money.mtl
o Cylinder
v 0.000000 -0.100000 -1.000000
v 0.000000 0.100000 -1.000000
v 0.195090 -0.100000 -0.980785
v 0.195090 0.100000 -0.980785
v 0.382683 -0.100000 -0.923880
v 0.382683 0.100000 -0.923880
v 0.555570 -0.100000 -0.831470
v 0.555570 0.100000 -0.831470
v 0.707107 -0.100000 -0.707107
v 0.707107 0.100000 -0.707107
v 0.831470 -0.100000 -0.555570
v 0.831470 0.100000 -0.555570
v 0.923880 -0.100000 -0.382683
v 0.923880 0.100000 -0.382683
v 0.980785 -0.100000 -0.195090
v 0.980785 0.100000 -0.195090
v 1.000000 -0.100000 0.000000
v 1.000000 0.100000 0.000000
v 0.980785 -0.100000 0.195090
v 0.980785 0.100000 0.195090
v 0.923880 -0.100000 0.382683
v 0.923880 0.100000 0.382683
v 0.831470 -0.100000 0.555570
v 0.831470 0.100000 0.555570
v 0.707107 -0.100000 0.707107
v 0.707107 0.100000 0.707107
v 0.555570 -0.100000 0.831470
v 0.555570 0.100000 0.831470
v 0.382683 -0.100000 0.923880
v 0.382683 0.100000 0.923880
v 0.195090 -0.100000 0.980785
v 0.195090 0.100000 0.980785
v 0.000000 -0.100000 1.000000
v 0.000000 0.100000 1.000000
v -0.195090 -0.100000 0.980785
v -0.195090 0.100000 0.980785
v -0.382683 -0.100000 0.923880
v -0.382683 0.100000 0.923880
v -0.555570 -0.100000 0.831470
v -0.555570 0.100000 0.831470
v -0.707107 -0.100000 0.707107
v -0.707107 0.100000 0.707107
v -0.831470 -0.100000 0.555570
v -0.831470 0.100000 0.555570
v -0.923880 -0.100000 0.382683
v -0.923880 0.100000 0.382683
v -0.980785 -0.100000 0.195090
v -0.980785 0.100000 0.195090
v -1.000000 -0.100000 0.000000
v -1.000000 0.100000 0.000000
v -0.980785 -0.100000 -0.195090
v -0.980785 0.100000 -0.195090
v -0.923880 -0.100000 -0.382683
v -0.923880 0.100000 -0.382683
v -0.831470 -0.100000 -0.555570
v -0.831470 0.100000 -0.555570
v -0.707107 -0.100000 -0.707107
v -0.707107 0.100000 -0.707107
v -0.555570 -0.100000 -0.831470
v -0.555570 0.100000 -0.831470
v -0.382683 -0.100000 -0.923880
v -0.382683 0.100000 -0.923880
v -0.195090 -0.100000 -0.980785
v -0.195090 0.100000 -0.980785
v 0.000000 -0.100000 -1.111101
v 0.216765 -0.100000 -1.089751
v 0.216765 0.100000 -1.089751
v 0.000000 0.100000 -1.111101
v 0.425200 -0.100000 -1.026523
v 0.425200 0.100000 -1.026523
v 0.617294 -0.100000 -0.923846
v 0.617294 0.100000 -0.923846
v 0.785667 -0.100000 -0.785667
v 0.785667 0.100000 -0.785667
v 0.923846 -0.100000 -0.617294
v 0.923846 0.100000 -0.617294
v 1.026523 -0.100000 -0.425200
v 1.026523 0.100000 -0.425200
v 1.089751 -0.100000 -0.216765
v 1.089751 0.100000 -0.216765
v 1.111101 -0.100000 0.000000
v 1.111101 0.100000 0.000000
v 1.089751 -0.100000 0.216765
v 1.089751 0.100000 0.216765
v 1.026523 -0.100000 0.425200
v 1.026523 0.100000 0.425200
v 0.923846 -0.100000 0.617294
v 0.923846 0.100000 0.617294
v 0.785667 -0.100000 0.785667
v 0.785667 0.100000 0.785667
v 0.617294 -0.100000 0.923846
v 0.617294 0.100000 0.923846
v 0.425200 -0.100000 1.026523
v 0.425200 0.100000 1.026523
v 0.216765 -0.100000 1.089751
v 0.216765 0.100000 1.089751
v 0.000000 -0.100000 1.111101
v 0.000000 0.100000 1.111101
v -0.216765 -0.100000 1.089751
v -0.216765 0.100000 1.089751
v -0.425200 -0.100000 1.026523
v -0.425200 0.100000 1.026523
v -0.617294 -0.100000 0.923846
v -0.617294 0.100000 0.923846
v -0.785667 -0.100000 0.785667
v -0.785667 0.100000 0.785667
v -0.923846 -0.100000 0.617294
v -0.923846 0.100000 0.617294
v -1.026523 -0.100000 0.425200
v -1.026523 0.100000 0.425200
v -1.089751 -0.100000 0.216765
v -1.089751 0.100000 0.216765
v -1.111101 -0.100000 0.000000
v -1.111101 0.100000 0.000000
v -1.089751 -0.100000 -0.216765
v -1.089751 0.100000 -0.216765
v -1.026523 -0.100000 -0.425200
v -1.026523 0.100000 -0.425200
v -0.923846 -0.100000 -0.617294
v -0.923846 0.100000 -0.617294
v -0.785667 -0.100000 -0.785667
v -0.785667 0.100000 -0.785667
v -0.617294 -0.100000 -0.923846
v -0.617294 0.100000 -0.923846
v -0.425200 -0.100000 -1.026523
v -0.425200 0.100000 -1.026523
v -0.216765 -0.100000 -1.089751
v -0.216765 0.100000 -1.089751
v 0.000000 -0.149519 -1.000000
v 0.195090 -0.149519 -0.980785
v 0.195090 0.149519 -0.980785
v 0.000000 0.149519 -1.000000
v 1.026523 -0.149519 0.425200
v 0.923880 -0.149519 0.382683
v -0.831470 0.149519 -0.555570
v -0.923846 0.149519 -0.617294
v 0.382683 -0.149519 -0.923880
v 0.382683 0.149519 -0.923880
v 0.000000 0.149519 -1.111101
v 0.555570 -0.149519 -0.831470
v 0.555570 0.149519 -0.831470
v 0.216765 0.149519 -1.089751
v 0.707107 -0.149519 -0.707107
v 0.707107 0.149519 -0.707107
v -0.382683 0.149519 0.923880
v -0.425200 0.149519 1.026523
v 0.831470 -0.149519 -0.555570
v 0.831470 0.149519 -0.555570
v -0.923846 -0.149519 -0.617294
v -0.831470 -0.149519 -0.555570
v 0.923880 -0.149519 -0.382683
v 0.923880 0.149519 -0.382683
v 0.216765 -0.149519 -1.089751
v 0.980785 -0.149519 -0.195090
v 0.980785 0.149519 -0.195090
v 0.000000 -0.149519 -1.111101
v 1.000000 -0.149519 0.000000
v 1.000000 0.149519 0.000000
v 0.980785 0.149519 0.195090
v 1.089751 0.149519 0.216765
v 0.980785 -0.149519 0.195090
v -0.425200 -0.149519 1.026523
v -0.382683 -0.149519 0.923880
v 0.923880 0.149519 0.382683
v 1.089751 -0.149519 0.216765
v 0.831470 -0.149519 0.555570
v 0.831470 0.149519 0.555570
v -0.923880 0.149519 -0.382683
v -1.026523 0.149519 -0.425200
v 0.707107 -0.149519 0.707107
v 0.707107 0.149519 0.707107
v -0.195090 0.149519 0.980785
v -0.216765 0.149519 1.089751
v 0.555570 -0.149519 0.831470
v 0.555570 0.149519 0.831470
v -1.026523 -0.149519 -0.425200
v -0.923880 -0.149519 -0.382683
v 0.382683 -0.149519 0.923880
v 0.382683 0.149519 0.923880
v 1.111101 0.149519 0.000000
v 0.195090 -0.149519 0.980785
v 0.195090 0.149519 0.980785
v -0.216765 -0.149519 1.089751
v -0.195090 -0.149519 0.980785
v 0.000000 -0.149519 1.000000
v 0.000000 0.149519 1.000000
v 1.111101 -0.149519 0.000000
v -0.980785 0.149519 -0.195090
v -1.089751 0.149519 -0.216765
v 0.000000 0.149519 1.111101
v -0.555570 -0.149519 0.831470
v -0.555570 0.149519 0.831470
v -1.089751 -0.149519 -0.216765
v -0.980785 -0.149519 -0.195090
v -0.707107 -0.149519 0.707107
v -0.707107 0.149519 0.707107
v 1.026523 0.149519 -0.425200
v -0.831470 -0.149519 0.555570
v -0.831470 0.149519 0.555570
v 1.089751 0.149519 -0.216765
v -0.923880 -0.149519 0.382683
v -0.923880 0.149519 0.382683
v 0.000000 -0.149519 1.111101
v -0.980785 -0.149519 0.195090
v -0.980785 0.149519 0.195090
v 0.216765 -0.149519 1.089751
v -1.000000 -0.149519 0.000000
v -1.000000 0.149519 0.000000
v 1.089751 -0.149519 -0.216765
v 1.026523 -0.149519 -0.425200
v -1.089751 0.149519 0.216765
v -1.111101 0.149519 0.000000
v -0.707107 -0.149519 -0.707107
v -0.707107 0.149519 -0.707107
v 0.425200 0.149519 1.026523
v -0.555570 -0.149519 -0.831470
v -0.555570 0.149519 -0.831470
v 0.216765 0.149519 1.089751
v -0.382683 -0.149519 -0.923880
v -0.382683 0.149519 -0.923880
v -1.111101 -0.149519 0.000000
v -0.195090 -0.149519 -0.980785
v -0.195090 0.149519 -0.980785
v -1.089751 -0.149519 0.216765
v 0.425200 -0.149519 -1.026523
v 0.425200 0.149519 -1.026523
v 0.617294 -0.149519 -0.923846
v 0.617294 0.149519 -0.923846
v 0.785667 -0.149519 -0.785667
v 0.785667 0.149519 -0.785667
v 0.923846 -0.149519 -0.617294
v 0.923846 0.149519 -0.617294
v 1.026523 0.149519 0.425200
v 0.923846 -0.149519 0.617294
v 0.923846 0.149519 0.617294
v 0.785667 -0.149519 0.785667
v 0.785667 0.149519 0.785667
v 0.617294 -0.149519 0.923846
v 0.617294 0.149519 0.923846
v 0.425200 -0.149519 1.026523
v -0.617294 -0.149519 0.923846
v -0.617294 0.149519 0.923846
v -0.785667 -0.149519 0.785667
v -0.785667 0.149519 0.785667
v -0.923846 -0.149519 0.617294
v -0.923846 0.149519 0.617294
v -1.026523 -0.149519 0.425200
v -1.026523 0.149519 0.425200
v -0.785667 -0.149519 -0.785667
v -0.785667 0.149519 -0.785667
v -0.617294 -0.149519 -0.923846
v -0.617294 0.149519 -0.923846
v -0.425200 -0.149519 -1.026523
v -0.425200 0.149519 -1.026523
v -0.216765 -0.149519 -1.089751
v -0.216765 0.149519 -1.089751
v -0.295269 0.100000 -0.343468
v -0.295215 0.100000 0.326712
v -0.198897 0.100000 0.326896
v -0.198883 0.100000 -0.194499
v 0.009389 0.100000 0.064519
v 0.025142 0.100000 0.064219
v 0.231373 0.100000 -0.195556
v 0.233384 0.100000 0.326729
v 0.329711 0.100000 0.326849
v 0.329681 0.100000 -0.343706
v 0.240225 0.100000 -0.343725
v 0.017238 0.100000 -0.068116
v -0.204774 0.100000 -0.343178
v -0.295269 0.153263 -0.343468
v -0.295215 0.153263 0.326712
v -0.198897 0.153263 0.326896
v -0.198883 0.153263 -0.194499
v 0.009389 0.153263 0.064519
v 0.025142 0.153263 0.064219
v 0.231373 0.153263 -0.195556
v 0.233384 0.153263 0.326729
v 0.329711 0.153263 0.326849
v 0.329681 0.153263 -0.343706
v 0.240225 0.153263 -0.343725
v 0.017238 0.153263 -0.068116
v -0.204774 0.153263 -0.343178
vn -0.4714 -0.0000 -0.8819
vn 0.2903 -0.0000 0.9569
vn 0.0980 -0.0000 0.9952
vn -0.6344 -0.0000 -0.7730
vn 0.4714 -0.0000 0.8819
vn -0.0980 -0.0000 -0.9952
vn -0.7730 -0.0000 -0.6344
vn 0.6344 -0.0000 0.7730
vn -0.2903 -0.0000 -0.9569
vn -0.8819 -0.0000 -0.4714
vn 0.7730 -0.0000 0.6344
vn -0.0000 1.0000 -0.0000
vn -0.9569 -0.0000 -0.2903
vn 0.8819 -0.0000 0.4714
vn -0.0000 -1.0000 -0.0000
vn 0.0980 -0.0000 -0.9952
vn 0.2903 -0.0000 -0.9569
vn 0.4714 -0.0000 -0.8819
vn 0.6344 -0.0000 -0.7730
vn 0.7730 -0.0000 -0.6344
vn 0.8819 -0.0000 -0.4714
vn 0.9569 -0.0000 -0.2903
vn 0.9952 -0.0000 -0.0980
vn 0.9952 -0.0000 0.0980
vn 0.9569 -0.0000 0.2903
vn -0.0980 -0.0000 0.9952
vn -0.2903 -0.0000 0.9569
vn -0.4714 -0.0000 0.8819
vn -0.6344 -0.0000 0.7730
vn -0.7730 -0.0000 0.6344
vn -0.8819 -0.0000 0.4714
vn -0.9569 -0.0000 0.2903
vn -0.9952 -0.0000 0.0980
vn -0.9952 -0.0000 -0.0980
vn 1.0000 -0.0000 -0.0000
vn -0.7774 -0.0000 -0.6290
vn -0.7793 -0.0000 0.6266
vn 0.7782 -0.0000 -0.6281
vn 0.0191 -0.0000 0.9998
vn 0.0032 -0.0000 -1.0000
vn 0.7832 -0.0000 0.6218
vn -1.0000 -0.0000 0.0039
vn -0.0012 -0.0000 1.0000
vn -1.0000 -0.0000 0.0001
vn -0.0019 -0.0000 1.0000
vn 0.0002 -0.0000 -1.0000
vt 0.383337 0.050447
vt 0.341844 0.028269
vt 0.158156 0.471731
vt 0.203178 0.485388
vt 0.500000 1.000000
vt 0.531250 1.000000
vt 0.841844 0.028269
vt 0.883337 0.050447
vt 0.703178 0.485388
vt 0.658156 0.471731
vt 0.531250 0.500000
vt 0.500000 0.500000
vt 0.419706 0.080294
vt 0.116663 0.449553
vt 0.562500 1.000000
vt 0.919706 0.080294
vt 0.000000 1.000000
vt 0.031250 1.000000
vt 0.616663 0.449553
vt 0.562500 0.500000
vt 0.031250 0.500000
vt 0.000000 0.500000
vt 0.449553 0.116663
vt 0.080294 0.419706
vt 0.593750 1.000000
vt 0.949553 0.116663
vt 0.062500 1.000000
vt 0.580294 0.419706
vt 0.593750 0.500000
vt 0.062500 0.500000
vt 0.471731 0.158156
vt 0.050447 0.383337
vt 0.625000 1.000000
vt 0.971731 0.158156
vt 0.093750 1.000000
vt 0.550447 0.383337
vt 0.625000 0.500000
vt 0.093750 0.500000
vt 0.296822 0.485388
vt 0.250000 0.490000
vt 0.028269 0.341844
vt 0.014612 0.296822
vt 0.010000 0.250000
vt 0.014612 0.203178
vt 0.028269 0.158156
vt 0.050447 0.116663
vt 0.080294 0.080294
vt 0.116663 0.050447
vt 0.158156 0.028269
vt 0.203178 0.014612
vt 0.250000 0.010000
vt 0.296822 0.014612
vt 0.485388 0.203178
vt 0.490000 0.250000
vt 0.485388 0.296822
vt 0.471731 0.341844
vt 0.449553 0.383337
vt 0.419706 0.419706
vt 0.383337 0.449553
vt 0.341844 0.471731
vt 0.750000 0.490000
vt 0.796822 0.485388
vt 0.841844 0.471731
vt 0.883337 0.449553
vt 0.919706 0.419706
vt 0.949553 0.383337
vt 0.971731 0.341844
vt 0.985388 0.296822
vt 0.990000 0.250000
vt 0.985388 0.203178
vt 0.796822 0.014612
vt 0.750000 0.010000
vt 0.703178 0.014612
vt 0.658156 0.028269
vt 0.616663 0.050447
vt 0.580294 0.080294
vt 0.550447 0.116663
vt 0.528269 0.158156
vt 0.514612 0.203178
vt 0.510000 0.250000
vt 0.514612 0.296822
vt 0.528269 0.341844
vt 1.000000 0.500000
vt 1.000000 1.000000
vt 0.968750 1.000000
vt 0.968750 0.500000
vt 0.937500 1.000000
vt 0.937500 0.500000
vt 0.906250 1.000000
vt 0.906250 0.500000
vt 0.875000 1.000000
vt 0.875000 0.500000
vt 0.843750 1.000000
vt 0.843750 0.500000
vt 0.812500 1.000000
vt 0.812500 0.500000
vt 0.781250 1.000000
vt 0.781250 0.500000
vt 0.750000 1.000000
vt 0.750000 0.500000
vt 0.718750 1.000000
vt 0.718750 0.500000
vt 0.687500 1.000000
vt 0.687500 0.500000
vt 0.656250 1.000000
vt 0.656250 0.500000
vt 0.468750 1.000000
vt 0.468750 0.500000
vt 0.437500 1.000000
vt 0.437500 0.500000
vt 0.406250 1.000000
vt 0.406250 0.500000
vt 0.375000 1.000000
vt 0.375000 0.500000
vt 0.343750 1.000000
vt 0.343750 0.500000
vt 0.312500 1.000000
vt 0.312500 0.500000
vt 0.281250 1.000000
vt 0.281250 0.500000
vt 0.250000 1.000000
vt 0.250000 0.500000
vt 0.218750 1.000000
vt 0.218750 0.500000
vt 0.187500 1.000000
vt 0.187500 0.500000
vt 0.156250 1.000000
vt 0.156250 0.500000
vt 0.125000 1.000000
vt 0.125000 0.500000
vt 0.179148 0.171589
vt 0.202265 0.171545
vt 0.202268 0.296680
vt 0.252253 0.234515
vt 0.256034 0.234587
vt 0.305530 0.296933
vt 0.306012 0.171585
vt 0.329131 0.171556
vt 0.329124 0.332490
vt 0.307654 0.332494
vt 0.254137 0.266348
vt 0.200854 0.332363
vt 0.179135 0.332432
s 0
usemtl Material.001
f 28/1/1 30/2/1 179/2/1 175/1/1
f 62/3/2 64/4/2 223/4/2 220/3/2
f 98/5/3 96/6/3 218/6/3 190/5/3
f 29/7/1 27/8/1 174/8/1 178/7/1
f 63/9/2 61/10/2 219/10/2 222/9/2
f 95/11/3 97/12/3 203/12/3 206/11/3
f 26/13/4 28/1/4 175/1/4 171/13/4
f 60/14/5 62/3/5 220/3/5 217/14/5
f 96/6/2 94/15/2 215/15/2 218/6/2
f 27/8/4 25/16/4 170/16/4 174/8/4
f 68/17/6 128/18/6 256/18/6 139/17/6
f 61/10/5 59/19/5 216/19/5 219/10/5
f 93/20/2 95/11/2 206/11/2 240/20/2
f 127/21/6 65/22/6 156/22/6 255/21/6
f 24/23/7 26/13/7 171/13/7 167/23/7
f 58/24/8 60/14/8 217/14/8 214/24/8
f 94/15/5 92/25/5 239/25/5 215/15/5
f 25/16/7 23/26/7 166/26/7 170/16/7
f 128/18/9 126/27/9 254/27/9 256/18/9
f 59/19/8 57/28/8 213/28/8 216/19/8
f 91/29/5 93/20/5 240/20/5 238/29/5
f 125/30/9 127/21/9 255/21/9 253/30/9
f 22/31/10 24/23/10 167/23/10 164/31/10
f 56/32/11 58/24/11 214/24/11 135/32/11
f 92/25/8 90/33/8 237/33/8 239/25/8
f 23/26/10 21/34/10 134/34/10 166/26/10
f 126/27/1 124/35/1 252/35/1 254/27/1
f 57/28/11 55/36/11 150/36/11 213/28/11
f 89/37/8 91/29/8 238/29/8 236/37/8
f 123/38/1 125/30/1 253/30/1 251/38/1
f 4/39/12 2/40/12 64/4/12 62/3/12 60/14/12 58/24/12 56/32/12 54/41/12 52/42/12 50/43/12 48/44/12 46/45/12 44/46/12 42/47/12 40/48/12 38/49/12 36/50/12 34/51/12 32/52/12 30/2/12 28/1/12 26/13/12 24/23/12 22/31/12 20/53/12 18/54/12 16/55/12 14/56/12 12/57/12 10/58/12 8/59/12 6/60/12
f 20/53/13 22/31/13 164/31/13 159/53/13
f 54/41/14 56/32/14 135/32/14 168/41/14
f 1/61/15 3/62/15 5/63/15 7/64/15 9/65/15 11/66/15 13/67/15 15/68/15 17/69/15 19/70/15 21/34/15 23/26/15 25/16/15 27/8/15 29/7/15 31/71/15 33/72/15 35/73/15 37/74/15 39/75/15 41/76/15 43/77/15 45/78/15 47/79/15 49/80/15 51/81/15 53/82/15 55/36/15 57/28/15 59/19/15 61/10/15 63/9/15
f 65/83/16 68/84/16 67/85/16 66/86/16
f 66/86/17 67/85/17 70/87/17 69/88/17
f 69/88/18 70/87/18 72/89/18 71/90/18
f 71/90/19 72/89/19 74/91/19 73/92/19
f 73/92/20 74/91/20 76/93/20 75/94/20
f 75/94/21 76/93/21 78/95/21 77/96/21
f 77/96/22 78/95/22 80/97/22 79/98/22
f 79/98/23 80/97/23 82/99/23 81/100/23
f 81/100/24 82/99/24 84/101/24 83/102/24
f 83/102/25 84/101/25 86/103/25 85/104/25
f 85/104/14 86/103/14 88/105/14 87/106/14
f 87/106/11 88/105/11 90/33/11 89/37/11
f 89/37/8 90/33/8 92/25/8 91/29/8
f 91/29/5 92/25/5 94/15/5 93/20/5
f 93/20/2 94/15/2 96/6/2 95/11/2
f 95/11/3 96/6/3 98/5/3 97/12/3
f 97/12/26 98/5/26 100/107/26 99/108/26
f 99/108/27 100/107/27 102/109/27 101/110/27
f 101/110/28 102/109/28 104/111/28 103/112/28
f 103/112/29 104/111/29 106/113/29 105/114/29
f 105/114/30 106/113/30 108/115/30 107/116/30
f 107/116/31 108/115/31 110/117/31 109/118/31
f 109/118/32 110/117/32 112/119/32 111/120/32
f 111/120/33 112/119/33 114/121/33 113/122/33
f 113/122/34 114/121/34 116/123/34 115/124/34
f 115/124/13 116/123/13 118/125/13 117/126/13
f 117/126/10 118/125/10 120/127/10 119/128/10
f 119/128/7 120/127/7 122/129/7 121/130/7
f 121/130/4 122/129/4 124/35/4 123/38/4
f 123/38/1 124/35/1 126/27/1 125/30/1
f 125/30/9 126/27/9 128/18/9 127/21/9
f 127/21/6 128/18/6 68/17/6 65/22/6
f 90/33/11 88/105/11 235/105/11 237/33/11
f 21/34/13 19/70/13 161/70/13 134/34/13
f 124/35/4 122/129/4 250/129/4 252/35/4
f 55/36/14 53/82/14 177/82/14 150/36/14
f 87/106/11 89/37/11 236/37/11 234/106/11
f 121/130/4 123/38/4 251/38/4 249/130/4
f 18/54/34 20/53/34 159/53/34 158/54/34
f 52/42/25 54/41/25 168/41/25 188/42/25
f 88/105/14 86/103/14 233/103/14 235/105/14
f 19/70/34 17/69/34 157/69/34 161/70/34
f 122/129/7 120/127/7 136/127/7 250/129/7
f 53/82/25 51/81/25 194/81/25 177/82/25
f 85/104/14 87/106/14 234/106/14 133/104/14
f 119/128/7 121/130/7 249/130/7 149/128/7
f 16/55/33 18/54/33 158/54/33 155/55/33
f 50/43/24 52/42/24 188/42/24 208/43/24
f 86/103/25 84/101/25 160/101/25 233/103/25
f 17/69/33 15/68/33 154/68/33 157/69/33
f 120/127/10 118/125/10 169/125/10 136/127/10
f 51/81/24 49/80/24 207/80/24 194/81/24
f 83/102/25 85/104/25 133/104/25 165/102/25
f 117/126/10 119/128/10 149/128/10 176/126/10
f 14/56/32 16/55/32 155/55/32 152/56/32
f 48/44/23 50/43/23 208/43/23 205/44/23
f 84/101/24 82/99/24 180/99/24 160/101/24
f 15/68/32 13/67/32 151/67/32 154/68/32
f 118/125/13 116/123/13 189/123/13 169/125/13
f 49/80/23 47/79/23 204/79/23 207/80/23
f 81/100/24 83/102/24 165/102/24 187/100/24
f 115/124/13 117/126/13 176/126/13 193/124/13
f 12/57/31 14/56/31 152/56/31 148/57/31
f 46/45/22 48/44/22 205/44/22 202/45/22
f 131/39/12 138/60/12 226/60/12 142/39/12
f 166/26/15 134/34/15 133/34/15 234/26/15
f 135/32/12 214/24/12 250/24/12 136/32/12
f 137/63/15 130/62/15 153/62/15 225/63/15
f 145/49/12 192/48/12 242/48/12 146/49/12
f 213/28/15 150/36/15 149/36/15 249/28/15
f 159/53/12 164/31/12 233/31/12 160/53/12
f 191/75/15 163/74/15 162/74/15 241/75/15
f 134/34/15 161/70/15 165/70/15 133/34/15
f 168/41/12 135/32/12 136/32/12 169/41/12
f 132/40/12 131/39/12 142/39/12 139/40/12
f 172/50/12 145/49/12 146/49/12 173/50/12
f 150/36/15 177/82/15 176/82/15 149/36/15
f 130/62/15 129/61/15 156/61/15 153/62/15
f 158/54/12 159/53/12 160/53/12 180/54/12
f 163/74/15 184/73/15 183/73/15 162/74/15
f 161/70/15 157/69/15 187/69/15 165/70/15
f 188/42/12 168/41/12 169/41/12 189/42/12
f 186/51/12 172/50/12 173/50/12 190/51/12
f 177/82/15 194/81/15 193/81/15 176/82/15
f 155/55/12 158/54/12 180/54/12 200/55/12
f 184/73/15 185/72/15 203/72/15 183/73/15
f 157/69/15 154/68/15 209/68/15 187/69/15
f 208/43/12 188/42/12 189/42/12 212/43/12
f 182/52/12 186/51/12 190/51/12 218/52/12
f 194/81/15 207/80/15 221/80/15 193/81/15
f 152/56/12 155/55/12 200/55/12 197/56/12
f 185/72/15 181/71/15 206/71/15 203/72/15
f 154/68/15 151/67/15 210/67/15 209/68/15
f 205/44/12 208/43/12 212/43/12 211/44/12
f 179/2/12 182/52/12 218/52/12 215/2/12
f 207/80/15 204/79/15 224/79/15 221/80/15
f 195/76/15 191/75/15 241/75/15 243/76/15
f 164/31/12 167/23/12 235/23/12 233/31/12
f 216/19/15 213/28/15 249/28/15 251/19/15
f 192/48/12 196/47/12 244/47/12 242/48/12
f 140/64/15 137/63/15 225/63/15 227/64/15
f 214/24/12 217/14/12 252/14/12 250/24/12
f 170/16/15 166/26/15 234/26/15 236/16/15
f 138/60/12 141/59/12 228/59/12 226/60/12
f 198/77/15 195/76/15 243/76/15 245/77/15
f 167/23/12 171/13/12 237/13/12 235/23/12
f 219/10/15 216/19/15 251/19/15 253/10/15
f 196/47/12 199/46/12 246/46/12 244/47/12
f 143/65/15 140/64/15 227/64/15 229/65/15
f 217/14/12 220/3/12 254/3/12 252/14/12
f 174/8/15 170/16/15 236/16/15 238/8/15
f 141/59/12 144/58/12 230/58/12 228/59/12
f 201/78/15 198/77/15 245/77/15 247/78/15
f 171/13/12 175/1/12 239/1/12 237/13/12
f 222/9/15 219/10/15 253/10/15 255/9/15
f 199/46/12 202/45/12 248/45/12 246/46/12
f 147/66/15 143/65/15 229/65/15 231/66/15
f 220/3/12 223/4/12 256/4/12 254/3/12
f 178/7/15 174/8/15 238/8/15 240/7/15
f 144/58/12 148/57/12 232/57/12 230/58/12
f 204/79/15 201/78/15 247/78/15 224/79/15
f 175/1/12 179/2/12 215/2/12 239/1/12
f 129/61/15 222/9/15 255/9/15 156/61/15
f 202/45/12 205/44/12 211/44/12 248/45/12
f 151/67/15 147/66/15 231/66/15 210/67/15
f 223/4/12 132/40/12 139/40/12 256/4/12
f 181/71/15 178/7/15 240/7/15 206/71/15
f 148/57/12 152/56/12 197/56/12 232/57/12
f 97/12/26 99/108/26 183/108/26 203/12/26
f 1/61/3 63/9/3 222/9/3 129/61/3
f 31/71/9 29/7/9 178/7/9 181/71/9
f 100/107/26 98/5/26 190/5/26 173/107/26
f 64/4/3 2/40/3 132/40/3 223/4/3
f 30/2/9 32/52/9 182/52/9 179/2/9
f 65/83/16 66/86/16 153/86/16 156/83/16
f 99/108/27 101/110/27 162/110/27 183/108/27
f 67/85/16 68/84/16 139/84/16 142/85/16
f 33/72/6 31/71/6 181/71/6 185/72/6
f 102/109/27 100/107/27 173/107/27 146/109/27
f 32/52/6 34/51/6 186/51/6 182/52/6
f 101/110/28 103/112/28 241/112/28 162/110/28
f 66/86/17 69/88/17 225/88/17 153/86/17
f 35/73/16 33/72/16 185/72/16 184/73/16
f 104/111/28 102/109/28 146/109/28 242/111/28
f 70/87/17 67/85/17 142/85/17 226/87/17
f 34/51/16 36/50/16 172/50/16 186/51/16
f 103/112/29 105/114/29 243/114/29 241/112/29
f 3/62/26 1/61/26 129/61/26 130/62/26
f 69/88/18 71/90/18 227/90/18 225/88/18
f 37/74/17 35/73/17 184/73/17 163/74/17
f 106/113/29 104/111/29 242/111/29 244/113/29
f 2/40/26 4/39/26 131/39/26 132/40/26
f 72/89/18 70/87/18 226/87/18 228/89/18
f 36/50/17 38/49/17 145/49/17 172/50/17
f 105/114/30 107/116/30 245/116/30 243/114/30
f 71/90/19 73/92/19 229/92/19 227/90/19
f 39/75/18 37/74/18 163/74/18 191/75/18
f 108/115/30 106/113/30 244/113/30 246/115/30
f 5/63/27 3/62/27 130/62/27 137/63/27
f 74/91/19 72/89/19 228/89/19 230/91/19
f 38/49/18 40/48/18 192/48/18 145/49/18
f 4/39/27 6/60/27 138/60/27 131/39/27
f 107/116/31 109/118/31 247/118/31 245/116/31
f 73/92/20 75/94/20 231/94/20 229/92/20
f 41/76/19 39/75/19 191/75/19 195/76/19
f 110/117/31 108/115/31 246/115/31 248/117/31
f 7/64/28 5/63/28 137/63/28 140/64/28
f 76/93/20 74/91/20 230/91/20 232/93/20
f 40/48/19 42/47/19 196/47/19 192/48/19
f 6/60/28 8/59/28 141/59/28 138/60/28
f 109/118/32 111/120/32 224/120/32 247/118/32
f 75/94/21 77/96/21 210/96/21 231/94/21
f 43/77/20 41/76/20 195/76/20 198/77/20
f 112/119/32 110/117/32 248/117/32 211/119/32
f 9/65/29 7/64/29 140/64/29 143/65/29
f 78/95/21 76/93/21 232/93/21 197/95/21
f 42/47/20 44/46/20 199/46/20 196/47/20
f 8/59/29 10/58/29 144/58/29 141/59/29
f 111/120/33 113/122/33 221/122/33 224/120/33
f 77/96/22 79/98/22 209/98/22 210/96/22
f 45/78/21 43/77/21 198/77/21 201/78/21
f 114/121/33 112/119/33 211/119/33 212/121/33
f 11/66/30 9/65/30 143/65/30 147/66/30
f 80/97/22 78/95/22 197/95/22 200/97/22
f 44/46/21 46/45/21 202/45/21 199/46/21
f 10/58/30 12/57/30 148/57/30 144/58/30
f 113/122/34 115/124/34 193/124/34 221/122/34
f 79/98/23 81/100/23 187/100/23 209/98/23
f 47/79/22 45/78/22 201/78/22 204/79/22
f 116/123/34 114/121/34 212/121/34 189/123/34
f 13/67/31 11/66/31 147/66/31 151/67/31
f 82/99/23 80/97/23 200/97/23 180/99/23
f 271/131/12 272/132/12 273/133/12 274/134/12 275/135/12 276/136/12 277/137/12 278/138/12 279/139/12 280/140/12 281/141/12 282/142/12 270/143/12
f 259/132/35 260/133/35 273/133/35 272/132/35
f 267/140/36 268/141/36 281/141/36 280/140/36
f 260/133/37 261/134/37 274/134/37 273/133/37
f 268/141/38 269/142/38 282/142/38 281/141/38
f 261/134/39 262/135/39 275/135/39 274/134/39
f 269/142/40 257/143/40 270/143/40 282/142/40
f 262/135/41 263/136/41 276/136/41 275/135/41
f 263/136/42 264/137/42 277/137/42 276/136/42
f 264/137/43 265/138/43 278/138/43 277/137/43
f 257/143/44 258/131/44 271/131/44 270/143/44
f 265/138/35 266/139/35 279/139/35 278/138/35
f 258/131/45 259/132/45 272/132/45 271/131/45
f 266/139/46 267/140/46 280/140/46 279/139/46
o Text
v 0.318500 0.000000 -0.432000
v 0.227500 0.000000 -0.432000
v 0.000500 0.000000 -0.152000
v -0.225500 0.000000 -0.432000
v -0.317500 0.000000 -0.432000
v -0.317500 0.000000 0.250000
v -0.219500 0.000000 0.250000
v -0.219500 0.000000 -0.281000
v -0.217500 0.000000 -0.281000
v -0.007500 0.000000 -0.017000
v 0.008500 0.000000 -0.017000
v 0.218500 0.000000 -0.281000
v 0.220500 0.000000 -0.281000
v 0.220500 0.000000 0.250000
v 0.318500 0.000000 0.250000
vn -0.0000 1.0000 -0.0000
vt 0.357143 0.000000
vt 0.214286 0.000000
vt 0.285714 0.000000
vt 0.500000 0.000000
vt 0.571429 0.000000
vt 0.142857 0.000000
vt 0.000000 0.000000
vt 0.071429 0.000000
vt 0.785714 0.000000
vt 0.857143 0.000000
vt 1.000000 0.000000
vt 0.428571 0.000000
vt 0.642857 0.000000
vt 0.714286 0.000000
vt 0.928571 0.000000
s 0
f 288/144/47 286/145/47 287/146/47
f 288/144/47 290/147/47 286/145/47
f 290/147/47 291/148/47 286/145/47
f 291/148/47 285/149/47 286/145/47
f 285/149/47 283/150/47 284/151/47
f 285/149/47 294/152/47 283/150/47
f 294/152/47 295/153/47 283/150/47
f 295/153/47 297/154/47 283/150/47
f 288/144/47 289/155/47 290/147/47
f 292/156/47 285/149/47 291/148/47
f 285/149/47 293/157/47 294/152/47
f 296/158/47 297/154/47 295/153/47
f 292/156/47 293/157/47 285/149/47
