# Blender 5.1.2
# www.blender.org
mtllib Strela.mtl
o Cylinder.018
v 0.000000 2.300000 -1.500000
v 0.000000 2.300000 1.500000
v 0.019509 2.298079 -1.500000
v 0.019509 2.298079 1.500000
v 0.038268 2.292388 -1.500000
v 0.038268 2.292388 1.500000
v 0.055557 2.283147 -1.500000
v 0.055557 2.283147 1.500000
v 0.070711 2.270711 -1.500000
v 0.070711 2.270711 1.500000
v 0.083147 2.255557 -1.500000
v 0.083147 2.255557 1.500000
v 0.092388 2.238268 -1.500000
v 0.092388 2.238268 1.500000
v 0.098079 2.219509 -1.500000
v 0.098079 2.219509 1.500000
v 0.100000 2.200000 -1.500000
v 0.100000 2.200000 1.500000
v 0.098079 2.180491 -1.500000
v 0.098079 2.180491 1.500000
v 0.092388 2.161732 -1.500000
v 0.092388 2.161732 1.500000
v 0.083147 2.144443 -1.500000
v 0.083147 2.144443 1.500000
v 0.070711 2.129289 -1.500000
v 0.070711 2.129289 1.500000
v 0.055557 2.116853 -1.500000
v 0.055557 2.116853 1.500000
v 0.038268 2.107612 -1.500000
v 0.038268 2.107612 1.500000
v 0.019509 2.101922 -1.500000
v 0.019509 2.101922 1.500000
v 0.000000 2.100000 -1.500000
v 0.000000 2.100000 1.500000
v -0.019509 2.101922 -1.500000
v -0.019509 2.101922 1.500000
v -0.038268 2.107612 -1.500000
v -0.038268 2.107612 1.500000
v -0.055557 2.116853 -1.500000
v -0.055557 2.116853 1.500000
v -0.070711 2.129289 -1.500000
v -0.070711 2.129289 1.500000
v -0.083147 2.144443 -1.500000
v -0.083147 2.144443 1.500000
v -0.092388 2.161732 -1.500000
v -0.092388 2.161732 1.500000
v -0.098079 2.180491 -1.500000
v -0.098079 2.180491 1.500000
v -0.100000 2.200000 -1.500000
v -0.100000 2.200000 1.500000
v -0.098079 2.219509 -1.500000
v -0.098079 2.219509 1.500000
v -0.092388 2.238268 -1.500000
v -0.092388 2.238268 1.500000
v -0.083147 2.255557 -1.500000
v -0.083147 2.255557 1.500000
v -0.070711 2.270711 -1.500000
v -0.070711 2.270711 1.500000
v -0.055557 2.283147 -1.500000
v -0.055557 2.283147 1.500000
v -0.038268 2.292388 -1.500000
v -0.038268 2.292388 1.500000
v -0.019509 2.298079 -1.500000
v -0.019509 2.298079 1.500000
v -0.000000 2.203423 -1.993089
v 0.000668 2.203357 -1.993089
v 0.001310 2.203162 -1.993089
v 0.001901 2.202846 -1.993089
v 0.002420 2.202420 -1.993089
v 0.002846 2.201902 -1.993089
v 0.003162 2.201310 -1.993089
v 0.003357 2.200668 -1.993089
v 0.003423 2.200000 -1.993089
v 0.003357 2.199332 -1.993089
v 0.003162 2.198690 -1.993089
v 0.002846 2.198099 -1.993089
v 0.002420 2.197580 -1.993089
v 0.001901 2.197155 -1.993089
v 0.001310 2.196838 -1.993089
v 0.000668 2.196643 -1.993089
v -0.000000 2.196578 -1.993089
v -0.000668 2.196643 -1.993089
v -0.001310 2.196838 -1.993089
v -0.001902 2.197155 -1.993089
v -0.002420 2.197580 -1.993089
v -0.002846 2.198099 -1.993089
v -0.003162 2.198690 -1.993089
v -0.003357 2.199332 -1.993089
v -0.003423 2.200000 -1.993089
v -0.003357 2.200668 -1.993089
v -0.003162 2.201310 -1.993089
v -0.002846 2.201902 -1.993089
v -0.002420 2.202420 -1.993089
v -0.001902 2.202846 -1.993089
v -0.001310 2.203162 -1.993089
v -0.000668 2.203357 -1.993089
v 0.000000 2.300000 -1.425692
v 0.019509 2.298079 -1.425692
v 0.038268 2.292388 -1.425692
v 0.055557 2.283147 -1.425692
v 0.070711 2.270711 -1.425692
v 0.083147 2.255557 -1.425692
v 0.092388 2.238268 -1.425692
v 0.098079 2.219509 -1.425692
v 0.100000 2.200000 -1.425692
v 0.098079 2.180491 -1.425692
v 0.092388 2.161732 -1.425692
v 0.083147 2.144443 -1.425692
v 0.070711 2.129289 -1.425692
v 0.055557 2.116853 -1.425692
v 0.038268 2.107612 -1.425692
v 0.019509 2.101922 -1.425692
v 0.000000 2.100000 -1.425692
v -0.019509 2.101922 -1.425692
v -0.038268 2.107612 -1.425692
v -0.055557 2.116853 -1.425692
v -0.070711 2.129289 -1.425692
v -0.083147 2.144443 -1.425692
v -0.092388 2.161732 -1.425692
v -0.098079 2.180491 -1.425692
v -0.100000 2.200000 -1.425692
v -0.098079 2.219509 -1.425692
v -0.092388 2.238268 -1.425692
v -0.083147 2.255557 -1.425692
v -0.070711 2.270711 -1.425692
v -0.055557 2.283147 -1.425692
v -0.038268 2.292388 -1.425692
v -0.019509 2.298079 -1.425692
v 0.000000 2.309993 -1.500000
v 0.021459 2.307879 -1.500000
v 0.021459 2.307879 -1.425692
v 0.042092 2.301620 -1.500000
v 0.042092 2.301620 -1.425692
v 0.061109 2.291456 -1.500000
v 0.061109 2.291456 -1.425692
v 0.077777 2.277777 -1.500000
v 0.077777 2.277777 -1.425692
v 0.091456 2.261109 -1.500000
v 0.091456 2.261109 -1.425692
v 0.101620 2.242093 -1.500000
v 0.101620 2.242093 -1.425692
v 0.107879 2.221459 -1.500000
v 0.107879 2.221459 -1.425692
v 0.109993 2.200000 -1.500000
v 0.109993 2.200000 -1.425692
v 0.107879 2.178542 -1.500000
v 0.107879 2.178542 -1.425692
v 0.101620 2.157908 -1.500000
v 0.101620 2.157908 -1.425692
v 0.091456 2.138891 -1.500000
v 0.091456 2.138891 -1.425692
v 0.077777 2.122223 -1.500000
v 0.077777 2.122223 -1.425692
v 0.061109 2.108544 -1.500000
v 0.061109 2.108544 -1.425692
v 0.042092 2.098380 -1.500000
v 0.042092 2.098380 -1.425692
v 0.021459 2.092121 -1.500000
v 0.021459 2.092121 -1.425692
v 0.000000 2.090007 -1.500000
v 0.000000 2.090007 -1.425692
v -0.021459 2.092121 -1.500000
v -0.021459 2.092121 -1.425692
v -0.042092 2.098380 -1.500000
v -0.042092 2.098380 -1.425692
v -0.061109 2.108544 -1.500000
v -0.061109 2.108544 -1.425692
v -0.077777 2.122223 -1.500000
v -0.077777 2.122223 -1.425692
v -0.091456 2.138891 -1.500000
v -0.091456 2.138891 -1.425692
v -0.101620 2.157908 -1.500000
v -0.101620 2.157908 -1.425692
v -0.107879 2.178542 -1.500000
v -0.107879 2.178542 -1.425692
v -0.109993 2.200000 -1.500000
v -0.109993 2.200000 -1.425692
v -0.107879 2.221459 -1.500000
v -0.107879 2.221459 -1.425692
v -0.101620 2.242093 -1.500000
v -0.101620 2.242093 -1.425692
v -0.091456 2.261109 -1.500000
v -0.091456 2.261109 -1.425692
v -0.077777 2.277777 -1.500000
v -0.077777 2.277777 -1.425692
v -0.061109 2.291456 -1.500000
v -0.061109 2.291456 -1.425692
v -0.042092 2.301620 -1.500000
v -0.042092 2.301620 -1.425692
v -0.021459 2.307879 -1.500000
v -0.021459 2.307879 -1.425692
v 0.000000 2.309993 -1.425692
vn 0.0980 0.9952 -0.0000
vn 0.2903 0.9569 -0.0000
vn 0.4714 0.8819 -0.0000
vn 0.6344 0.7730 -0.0000
vn 0.7730 0.6344 -0.0000
vn 0.8819 0.4714 -0.0000
vn 0.9569 0.2903 -0.0000
vn 0.9952 0.0980 -0.0000
vn 0.9952 -0.0980 -0.0000
vn 0.9569 -0.2903 -0.0000
vn 0.8819 -0.4714 -0.0000
vn 0.7730 -0.6344 -0.0000
vn 0.6344 -0.7730 -0.0000
vn 0.4714 -0.8819 -0.0000
vn 0.2903 -0.9569 -0.0000
vn 0.0980 -0.9952 -0.0000
vn -0.0980 -0.9952 -0.0000
vn -0.2903 -0.9569 -0.0000
vn -0.4714 -0.8819 -0.0000
vn -0.6344 -0.7730 -0.0000
vn -0.7730 -0.6344 -0.0000
vn -0.8819 -0.4714 -0.0000
vn -0.9569 -0.2903 -0.0000
vn -0.9952 -0.0980 -0.0000
vn -0.9952 0.0980 -0.0000
vn -0.9569 0.2903 -0.0000
vn -0.8819 0.4714 -0.0000
vn -0.7730 0.6344 -0.0000
vn -0.6344 0.7730 -0.0000
vn -0.4714 0.8819 -0.0000
vn -0.0000 -0.0000 1.0000
vn -0.2903 0.9569 -0.0000
vn -0.0980 0.9952 -0.0000
vn 0.0962 -0.9768 -0.1913
vn -0.0000 -0.0000 -1.0000
vn -0.9768 0.0962 -0.1913
vn 0.4627 0.8656 -0.1913
vn 0.7587 -0.6227 -0.1913
vn -0.7587 -0.6227 -0.1913
vn -0.4627 0.8656 -0.1913
vn 0.9768 0.0962 -0.1913
vn -0.0962 -0.9768 -0.1913
vn -0.9393 0.2849 -0.1913
vn 0.6226 0.7588 -0.1913
vn 0.6227 -0.7587 -0.1913
vn -0.8656 -0.4627 -0.1913
vn -0.2849 0.9393 -0.1913
vn 0.9768 -0.0962 -0.1913
vn -0.2849 -0.9393 -0.1913
vn -0.8656 0.4627 -0.1913
vn 0.7587 0.6227 -0.1913
vn 0.4627 -0.8656 -0.1913
vn -0.9393 -0.2849 -0.1913
vn 0.0963 0.9768 -0.1913
vn -0.0963 0.9768 -0.1913
vn 0.9393 -0.2849 -0.1913
vn -0.4627 -0.8656 -0.1913
vn -0.7587 0.6227 -0.1913
vn 0.8656 0.4627 -0.1913
vn 0.2849 -0.9393 -0.1913
vn -0.9768 -0.0962 -0.1913
vn 0.2849 0.9393 -0.1913
vn 0.8656 -0.4627 -0.1913
vn -0.6227 -0.7587 -0.1913
vn -0.6227 0.7587 -0.1913
vn 0.9393 0.2849 -0.1913
vn 0.0963 -0.9768 -0.1913
vn -0.0016 -0.0000 -1.0000
vn -0.0032 -0.0000 -1.0000
vn -0.0008 -0.0000 -1.0000
vn 0.0016 -0.0000 -1.0000
vn 0.0032 -0.0000 -1.0000
vn 0.0008 -0.0000 -1.0000
vn 0.0001 -0.0000 -1.0000
vn -0.0963 -0.9768 -0.1913
vn 0.6227 0.7587 -0.1913
vn 0.0962 0.9768 -0.1913
vn -0.0962 0.9768 -0.1913
vn -0.6226 -0.7588 -0.1913
vn -0.6226 0.7588 -0.1913
vt 1.000000 1.000000
vt 0.968750 0.512385
vt 1.000000 0.512385
vt 0.968750 1.000000
vt 0.937500 0.512385
vt 0.937500 1.000000
vt 0.906250 0.512385
vt 0.906250 1.000000
vt 0.875000 0.512385
vt 0.875000 1.000000
vt 0.843750 0.512385
vt 0.843750 1.000000
vt 0.812500 0.512385
vt 0.812500 1.000000
vt 0.781250 0.512385
vt 0.781250 1.000000
vt 0.750000 0.512385
vt 0.750000 1.000000
vt 0.718750 0.512385
vt 0.718750 1.000000
vt 0.687500 0.512385
vt 0.687500 1.000000
vt 0.656250 0.512385
vt 0.656250 1.000000
vt 0.625000 0.512385
vt 0.625000 1.000000
vt 0.593750 0.512385
vt 0.593750 1.000000
vt 0.562500 0.512385
vt 0.562500 1.000000
vt 0.531250 0.512385
vt 0.531250 1.000000
vt 0.500000 0.512385
vt 0.500000 1.000000
vt 0.468750 0.512385
vt 0.468750 1.000000
vt 0.437500 0.512385
vt 0.437500 1.000000
vt 0.406250 0.512385
vt 0.406250 1.000000
vt 0.375000 0.512385
vt 0.375000 1.000000
vt 0.343750 0.512385
vt 0.343750 1.000000
vt 0.312500 0.512385
vt 0.312500 1.000000
vt 0.281250 0.512385
vt 0.281250 1.000000
vt 0.250000 0.512385
vt 0.250000 1.000000
vt 0.218750 0.512385
vt 0.218750 1.000000
vt 0.187500 0.512385
vt 0.187500 1.000000
vt 0.156250 0.512385
vt 0.156250 1.000000
vt 0.125000 0.512385
vt 0.125000 1.000000
vt 0.093750 0.512385
vt 0.093750 1.000000
vt 0.062500 0.512385
vt 0.158156 0.028269
vt 0.471731 0.158156
vt 0.341844 0.471731
vt 0.062500 1.000000
vt 0.031250 0.512385
vt 0.031250 1.000000
vt 0.000000 0.512385
vt 0.500000 0.500000
vt 0.531250 0.500000
vt 0.796822 0.014612
vt 0.514612 0.203178
vt 0.703178 0.485388
vt 0.218750 0.500000
vt 0.250000 0.500000
vt 0.906250 0.500000
vt 0.937500 0.500000
vt 0.625000 0.500000
vt 0.656250 0.500000
vt 0.343750 0.500000
vt 0.375000 0.500000
vt 0.062500 0.500000
vt 0.093750 0.500000
vt 0.781250 0.500000
vt 0.750000 0.500000
vt 0.468750 0.500000
vt 0.187500 0.500000
vt 0.875000 0.500000
vt 0.593750 0.500000
vt 0.312500 0.500000
vt 0.031250 0.500000
vt 0.718750 0.500000
vt 0.437500 0.500000
vt 0.156250 0.500000
vt 0.843750 0.500000
vt 0.562500 0.500000
vt 0.281250 0.500000
vt 1.000000 0.500000
vt 0.968750 0.500000
vt 0.000000 0.500000
vt 0.687500 0.500000
vt 0.406250 0.500000
vt 0.125000 0.500000
vt 0.812500 0.500000
vt 0.296822 0.485388
vt 0.250000 0.490000
vt 0.203178 0.485388
vt 0.158156 0.471731
vt 0.116663 0.449553
vt 0.080294 0.419706
vt 0.050447 0.383337
vt 0.028269 0.341844
vt 0.014612 0.296822
vt 0.010000 0.250000
vt 0.014612 0.203178
vt 0.028269 0.158156
vt 0.050447 0.116663
vt 0.080294 0.080294
vt 0.116663 0.050447
vt 0.203178 0.014612
vt 0.250000 0.010000
vt 0.296822 0.014612
vt 0.341844 0.028269
vt 0.383337 0.050447
vt 0.419706 0.080294
vt 0.449553 0.116663
vt 0.485388 0.203178
vt 0.490000 0.250000
vt 0.485388 0.296822
vt 0.471731 0.341844
vt 0.449553 0.383337
vt 0.419706 0.419706
vt 0.383337 0.449553
vt 0.000000 1.000000
vt 0.750000 0.490000
vt 0.796822 0.485388
vt 0.841844 0.471731
vt 0.883337 0.449553
vt 0.919706 0.419706
vt 0.949553 0.383337
vt 0.971731 0.341844
vt 0.985388 0.296822
vt 0.990000 0.250000
vt 0.985388 0.203178
vt 0.971731 0.158156
vt 0.949553 0.116663
vt 0.919706 0.080294
vt 0.883337 0.050447
vt 0.841844 0.028269
vt 0.750000 0.010000
vt 0.703178 0.014612
vt 0.658156 0.028269
vt 0.616663 0.050447
vt 0.580294 0.080294
vt 0.550447 0.116663
vt 0.528269 0.158156
vt 0.510000 0.250000
vt 0.514612 0.296822
vt 0.528269 0.341844
vt 0.550447 0.383337
vt 0.580294 0.419706
vt 0.616663 0.449553
vt 0.658156 0.471731
s 0
usemtl Material.006
f 2/1/1 98/2/1 97/3/1
f 4/4/2 99/5/2 98/2/2
f 6/6/3 100/7/3 99/5/3
f 8/8/4 101/9/4 100/7/4
f 10/10/5 102/11/5 101/9/5
f 12/12/6 103/13/6 102/11/6
f 14/14/7 104/15/7 103/13/7
f 16/16/8 105/17/8 104/15/8
f 18/18/9 106/19/9 105/17/9
f 20/20/10 107/21/10 106/19/10
f 22/22/11 108/23/11 107/21/11
f 24/24/12 109/25/12 108/23/12
f 26/26/13 110/27/13 109/25/13
f 28/28/14 111/29/14 110/27/14
f 30/30/15 112/31/15 111/29/15
f 32/32/16 113/33/16 112/31/16
f 34/34/17 114/35/17 113/33/17
f 36/36/18 115/37/18 114/35/18
f 38/38/19 116/39/19 115/37/19
f 40/40/20 117/41/20 116/39/20
f 42/42/21 118/43/21 117/41/21
f 44/44/22 119/45/22 118/43/22
f 46/46/23 120/47/23 119/45/23
f 48/48/24 121/49/24 120/47/24
f 50/50/25 122/51/25 121/49/25
f 52/52/26 123/53/26 122/51/26
f 54/54/27 124/55/27 123/53/27
f 56/56/28 125/57/28 124/55/28
f 58/58/29 126/59/29 125/57/29
f 60/60/30 127/61/30 126/59/30
f 38/62/31 22/63/31 6/64/31
f 62/65/32 128/66/32 127/61/32
f 64/67/33 97/68/33 128/66/33
f 11/95/35 140/104/35 13/104/35
f 122/51/31 177/49/31 121/49/31
f 63/91/35 129/100/35 1/100/35
f 123/53/31 179/51/31 122/51/31
f 45/90/35 174/97/35 47/97/35
f 27/89/35 156/96/35 29/96/35
f 124/55/31 181/53/31 123/53/31
f 98/2/31 192/3/31 97/3/31
f 9/88/35 138/95/35 11/95/35
f 125/57/31 183/55/31 124/55/31
f 61/82/35 190/91/35 63/91/35
f 99/5/31 131/2/31 98/2/31
f 43/80/35 172/90/35 45/90/35
f 126/59/31 185/57/31 125/57/31
f 100/7/31 133/5/31 99/5/31
f 25/78/35 154/89/35 27/89/35
f 126/59/31 189/61/31 187/59/31
f 101/9/31 135/7/31 100/7/31
f 7/76/35 136/88/35 9/88/35
f 127/61/31 191/66/31 189/61/31
f 59/83/35 188/82/35 61/82/35
f 102/11/31 137/9/31 101/9/31
f 97/68/31 191/66/31 128/66/31
f 41/81/35 170/80/35 43/80/35
f 102/11/31 141/13/31 139/11/31
f 23/79/35 152/78/35 25/78/35
f 103/13/31 143/15/31 141/13/31
f 7/76/35 132/77/35 134/76/35
f 57/103/35 186/83/35 59/83/35
f 105/17/31 143/15/31 104/15/31
f 39/102/35 168/81/35 41/81/35
f 106/19/31 145/17/31 105/17/31
f 191/66/33 129/100/33 190/91/33
f 189/61/32 190/91/32 188/82/32
f 187/59/30 188/82/30 186/83/30
f 185/57/29 186/83/29 184/103/29
f 183/55/28 184/103/28 182/94/28
f 181/53/27 182/94/27 180/87/27
f 179/51/26 180/87/26 178/74/26
f 177/49/25 178/74/25 176/75/25
f 175/47/24 176/75/24 174/97/24
f 173/45/23 174/97/23 172/90/23
f 171/43/22 172/90/22 170/80/22
f 169/41/21 170/80/21 168/81/21
f 167/39/20 168/81/20 166/102/20
f 165/37/19 166/102/19 164/93/19
f 163/35/18 164/93/18 162/86/18
f 161/33/17 162/86/17 160/69/17
f 159/31/16 160/69/16 158/70/16
f 157/29/15 158/70/15 156/96/15
f 155/27/14 156/96/14 154/89/14
f 153/25/13 154/89/13 152/78/13
f 151/23/12 152/78/12 150/79/12
f 149/21/11 150/79/11 148/101/11
f 147/19/10 148/101/10 146/92/10
f 145/17/9 146/92/9 144/85/9
f 143/15/8 144/85/8 142/84/8
f 141/13/7 142/84/7 140/104/7
f 139/11/6 140/104/6 138/95/6
f 137/9/5 138/95/5 136/88/5
f 135/7/4 136/88/4 134/76/4
f 133/5/3 134/76/3 132/77/3
f 131/2/2 132/77/2 130/99/2
f 192/3/1 130/99/1 129/98/1
f 121/49/31 175/47/31 120/47/31
f 29/96/35 158/70/35 31/70/35
f 47/97/35 176/75/35 49/75/35
f 119/45/31 175/47/31 173/45/31
f 118/43/31 173/45/31 171/43/31
f 13/104/35 142/84/35 15/84/35
f 118/43/31 169/41/31 117/41/31
f 31/70/35 160/69/35 33/69/35
f 49/75/35 178/74/35 51/74/35
f 117/41/31 167/39/31 116/39/31
f 116/39/31 165/37/31 115/37/31
f 15/84/35 144/85/35 17/85/35
f 115/37/31 163/35/31 114/35/31
f 33/69/35 162/86/35 35/86/35
f 114/35/31 161/33/31 113/33/31
f 53/87/35 178/74/35 180/87/35
f 113/33/31 159/31/31 112/31/31
f 17/85/35 146/92/35 19/92/35
f 111/29/31 159/31/31 157/29/31
f 37/93/35 162/86/35 164/93/35
f 1/98/35 130/99/35 3/99/35
f 55/94/35 180/87/35 182/94/35
f 110/27/31 157/29/31 155/27/31
f 110/27/31 153/25/31 109/25/31
f 21/101/35 146/92/35 148/101/35
f 109/25/31 151/23/31 108/23/31
f 39/102/35 164/93/35 166/102/35
f 108/23/31 149/21/31 107/21/31
f 55/94/35 184/103/35 57/103/35
f 5/77/35 130/99/35 132/77/35
f 107/21/31 147/19/31 106/19/31
f 23/79/35 148/101/35 150/79/35
f 2/1/1 4/4/1 98/2/1
f 4/4/2 6/6/2 99/5/2
f 6/6/3 8/8/3 100/7/3
f 8/8/4 10/10/4 101/9/4
f 10/10/5 12/12/5 102/11/5
f 12/12/6 14/14/6 103/13/6
f 14/14/7 16/16/7 104/15/7
f 16/16/8 18/18/8 105/17/8
f 18/18/9 20/20/9 106/19/9
f 20/20/10 22/22/10 107/21/10
f 22/22/11 24/24/11 108/23/11
f 24/24/12 26/26/12 109/25/12
f 26/26/13 28/28/13 110/27/13
f 28/28/14 30/30/14 111/29/14
f 30/30/15 32/32/15 112/31/15
f 32/32/16 34/34/16 113/33/16
f 34/34/17 36/36/17 114/35/17
f 36/36/18 38/38/18 115/37/18
f 38/38/19 40/40/19 116/39/19
f 40/40/20 42/42/20 117/41/20
f 42/42/21 44/44/21 118/43/21
f 44/44/22 46/46/22 119/45/22
f 46/46/23 48/48/23 120/47/23
f 48/48/24 50/50/24 121/49/24
f 50/50/25 52/52/25 122/51/25
f 52/52/26 54/54/26 123/53/26
f 54/54/27 56/56/27 124/55/27
f 56/56/28 58/58/28 125/57/28
f 58/58/29 60/60/29 126/59/29
f 60/60/30 62/65/30 127/61/30
f 6/64/31 4/105/31 2/106/31
f 2/106/31 64/107/31 62/108/31
f 62/108/31 60/109/31 58/110/31
f 58/110/31 56/111/31 54/112/31
f 54/112/31 52/113/31 50/114/31
f 50/114/31 48/115/31 46/116/31
f 46/116/31 44/117/31 42/118/31
f 42/118/31 40/119/31 38/62/31
f 38/62/31 36/120/31 34/121/31
f 34/121/31 32/122/31 30/123/31
f 30/123/31 28/124/31 26/125/31
f 26/125/31 24/126/31 22/63/31
f 22/63/31 20/127/31 18/128/31
f 18/128/31 16/129/31 14/130/31
f 14/130/31 12/131/31 10/132/31
f 10/132/31 8/133/31 6/64/31
f 6/64/31 2/106/31 62/108/31
f 62/108/31 58/110/31 54/112/31
f 54/112/31 50/114/31 46/116/31
f 46/116/31 42/118/31 38/62/31
f 38/62/31 34/121/31 30/123/31
f 30/123/31 26/125/31 22/63/31
f 22/63/31 18/128/31 14/130/31
f 14/130/31 10/132/31 6/64/31
f 6/64/31 62/108/31 54/112/31
f 54/112/31 46/116/31 38/62/31
f 38/62/31 30/123/31 22/63/31
f 22/63/31 14/130/31 6/64/31
f 6/64/31 54/112/31 38/62/31
f 62/65/32 64/67/32 128/66/32
f 64/67/33 2/134/33 97/68/33
f 11/95/35 138/95/35 140/104/35
f 122/51/31 179/51/31 177/49/31
f 63/91/35 190/91/35 129/100/35
f 123/53/31 181/53/31 179/51/31
f 45/90/35 172/90/35 174/97/35
f 27/89/35 154/89/35 156/96/35
f 124/55/31 183/55/31 181/53/31
f 98/2/31 131/2/31 192/3/31
f 9/88/35 136/88/35 138/95/35
f 125/57/31 185/57/31 183/55/31
f 61/82/35 188/82/35 190/91/35
f 99/5/31 133/5/31 131/2/31
f 43/80/35 170/80/35 172/90/35
f 126/59/31 187/59/31 185/57/31
f 100/7/31 135/7/31 133/5/31
f 25/78/35 152/78/35 154/89/35
f 126/59/31 127/61/31 189/61/31
f 101/9/31 137/9/31 135/7/31
f 7/76/35 134/76/35 136/88/35
f 127/61/31 128/66/31 191/66/31
f 59/83/35 186/83/35 188/82/35
f 102/11/31 139/11/31 137/9/31
f 97/68/31 192/68/31 191/66/31
f 41/81/35 168/81/35 170/80/35
f 102/11/31 103/13/31 141/13/31
f 23/79/35 150/79/35 152/78/35
f 103/13/31 104/15/31 143/15/31
f 7/76/35 5/77/35 132/77/35
f 57/103/35 184/103/35 186/83/35
f 105/17/31 145/17/31 143/15/31
f 39/102/35 166/102/35 168/81/35
f 106/19/31 147/19/31 145/17/31
f 191/66/33 192/68/33 129/100/33
f 189/61/32 191/66/32 190/91/32
f 187/59/30 189/61/30 188/82/30
f 185/57/29 187/59/29 186/83/29
f 183/55/28 185/57/28 184/103/28
f 181/53/27 183/55/27 182/94/27
f 179/51/26 181/53/26 180/87/26
f 177/49/25 179/51/25 178/74/25
f 175/47/24 177/49/24 176/75/24
f 173/45/23 175/47/23 174/97/23
f 171/43/22 173/45/22 172/90/22
f 169/41/21 171/43/21 170/80/21
f 167/39/20 169/41/20 168/81/20
f 165/37/19 167/39/19 166/102/19
f 163/35/18 165/37/18 164/93/18
f 161/33/17 163/35/17 162/86/17
f 159/31/16 161/33/16 160/69/16
f 157/29/15 159/31/15 158/70/15
f 155/27/14 157/29/14 156/96/14
f 153/25/13 155/27/13 154/89/13
f 151/23/12 153/25/12 152/78/12
f 149/21/11 151/23/11 150/79/11
f 147/19/10 149/21/10 148/101/10
f 145/17/9 147/19/9 146/92/9
f 143/15/8 145/17/8 144/85/8
f 141/13/7 143/15/7 142/84/7
f 139/11/6 141/13/6 140/104/6
f 137/9/5 139/11/5 138/95/5
f 135/7/4 137/9/4 136/88/4
f 133/5/3 135/7/3 134/76/3
f 131/2/2 133/5/2 132/77/2
f 192/3/1 131/2/1 130/99/1
f 121/49/31 177/49/31 175/47/31
f 29/96/35 156/96/35 158/70/35
f 47/97/35 174/97/35 176/75/35
f 119/45/31 120/47/31 175/47/31
f 118/43/31 119/45/31 173/45/31
f 13/104/35 140/104/35 142/84/35
f 118/43/31 171/43/31 169/41/31
f 31/70/35 158/70/35 160/69/35
f 49/75/35 176/75/35 178/74/35
f 117/41/31 169/41/31 167/39/31
f 116/39/31 167/39/31 165/37/31
f 15/84/35 142/84/35 144/85/35
f 115/37/31 165/37/31 163/35/31
f 33/69/35 160/69/35 162/86/35
f 114/35/31 163/35/31 161/33/31
f 53/87/35 51/74/35 178/74/35
f 113/33/31 161/33/31 159/31/31
f 17/85/35 144/85/35 146/92/35
f 111/29/31 112/31/31 159/31/31
f 37/93/35 35/86/35 162/86/35
f 1/98/35 129/98/35 130/99/35
f 55/94/35 53/87/35 180/87/35
f 110/27/31 111/29/31 157/29/31
f 110/27/31 155/27/31 153/25/31
f 21/101/35 19/92/35 146/92/35
f 109/25/31 153/25/31 151/23/31
f 39/102/35 37/93/35 164/93/35
f 108/23/31 151/23/31 149/21/31
f 55/94/35 182/94/35 184/103/35
f 5/77/35 3/99/35 130/99/35
f 107/21/31 149/21/31 147/19/31
f 23/79/35 21/101/35 148/101/35
usemtl Material.007
f 33/69/34 80/70/34 31/70/34
f 80/71/35 88/72/35 96/73/35
f 51/74/36 89/75/36 49/75/36
f 7/76/37 67/77/37 5/77/37
f 25/78/38 76/79/38 23/79/38
f 43/80/39 85/81/39 41/81/39
f 61/82/40 94/83/40 59/83/40
f 15/84/41 73/85/41 72/84/41
f 35/86/42 81/69/42 33/69/42
f 53/87/43 90/74/43 51/74/43
f 7/76/44 69/88/44 68/76/44
f 27/89/45 77/78/45 25/78/45
f 45/90/46 86/80/46 43/80/46
f 63/91/47 95/82/47 61/82/47
f 19/92/48 73/85/48 17/85/48
f 35/86/49 83/93/49 82/86/49
f 55/94/50 91/87/50 53/87/50
f 11/95/51 69/88/51 9/88/51
f 29/96/52 78/89/52 27/89/52
f 47/97/53 87/90/53 45/90/53
f 1/98/54 66/99/54 65/98/54
f 63/91/55 65/100/55 96/91/55
f 21/101/56 74/92/56 19/92/56
f 39/102/57 83/93/57 37/93/57
f 57/103/58 92/94/58 55/94/58
f 11/95/59 71/104/59 70/95/59
f 31/70/60 79/96/60 29/96/60
f 49/75/61 88/97/61 47/97/61
f 3/99/62 67/77/62 66/99/62
f 23/79/63 75/101/63 21/101/63
f 41/81/64 84/102/64 39/102/64
f 59/83/65 93/103/65 57/103/65
f 15/84/66 71/104/66 13/104/66
f 33/69/67 81/69/67 80/70/67
f 96/73/35 65/135/35 66/136/35
f 66/136/68 67/137/68 68/138/68
f 68/138/35 69/139/35 70/140/35
f 70/140/69 71/141/69 72/142/69
f 72/142/35 73/143/35 74/144/35
f 74/144/35 75/145/35 76/146/35
f 76/146/68 77/147/68 78/148/68
f 78/148/70 79/149/70 80/71/70
f 80/71/35 81/150/35 82/151/35
f 82/151/71 83/152/71 84/153/71
f 84/153/71 85/154/71 86/155/71
f 86/155/35 87/156/35 88/72/35
f 88/72/35 89/157/35 90/158/35
f 90/158/72 91/159/72 92/160/72
f 92/160/35 93/161/35 94/162/35
f 94/162/71 95/163/71 96/73/71
f 96/73/35 66/136/35 68/138/35
f 68/138/73 70/140/73 72/142/73
f 72/142/70 74/144/70 76/146/70
f 76/146/35 78/148/35 80/71/35
f 80/71/35 82/151/35 84/153/35
f 84/153/35 86/155/35 88/72/35
f 88/72/35 90/158/35 92/160/35
f 92/160/35 94/162/35 96/73/35
f 96/73/35 68/138/35 72/142/35
f 72/142/74 76/146/74 80/71/74
f 80/71/35 84/153/35 88/72/35
f 88/72/35 92/160/35 96/73/35
f 96/73/35 72/142/35 80/71/35
f 51/74/36 90/74/36 89/75/36
f 7/76/37 68/76/37 67/77/37
f 25/78/38 77/78/38 76/79/38
f 43/80/39 86/80/39 85/81/39
f 61/82/40 95/82/40 94/83/40
f 15/84/41 17/85/41 73/85/41
f 35/86/75 82/86/75 81/69/75
f 53/87/43 91/87/43 90/74/43
f 7/76/76 9/88/76 69/88/76
f 27/89/45 78/89/45 77/78/45
f 45/90/46 87/90/46 86/80/46
f 63/91/47 96/91/47 95/82/47
f 19/92/48 74/92/48 73/85/48
f 35/86/49 37/93/49 83/93/49
f 55/94/50 92/94/50 91/87/50
f 11/95/51 70/95/51 69/88/51
f 29/96/52 79/96/52 78/89/52
f 47/97/53 88/97/53 87/90/53
f 1/98/77 3/99/77 66/99/77
f 63/91/78 1/100/78 65/100/78
f 21/101/56 75/101/56 74/92/56
f 39/102/57 84/102/57 83/93/57
f 57/103/58 93/103/58 92/94/58
f 11/95/59 13/104/59 71/104/59
f 31/70/60 80/70/60 79/96/60
f 49/75/61 89/75/61 88/97/61
f 3/99/62 5/77/62 67/77/62
f 23/79/63 76/79/63 75/101/63
f 41/81/79 85/81/79 84/102/79
f 59/83/80 94/83/80 93/103/80
f 15/84/66 72/84/66 71/104/66
